<svg width="172" height="56" fill="none" xmlns="http://www.w3.org/2000/svg"><ellipse cx="134.744" cy="14.218" rx="5.858" ry="6.244" fill="#F8D24E"/><ellipse cx="52.726" cy="48.559" rx="5.858" ry="6.244" fill="#F8D24E"/><ellipse cx="65.419" cy="40.234" rx="5.858" ry="6.244" fill="#F8D24E"/><ellipse cx="80.065" cy="30.868" rx="5.858" ry="6.244" fill="#F8D24E"/><ellipse cx="93.735" cy="22.543" rx="5.858" ry="6.244" fill="#F8D24E"/><ellipse cx="5.858" cy="46.478" rx="5.858" ry="6.244" fill="#F8D24E"/><ellipse cx="18.551" cy="38.153" rx="5.858" ry="6.244" fill="#F8D24E"/><ellipse cx="33.198" cy="28.787" rx="5.858" ry="6.244" fill="#F8D24E"/><ellipse cx="46.867" cy="20.462" rx="5.858" ry="6.244" fill="#F8D24E"/><ellipse cx="80.065" cy="49.6" rx="5.858" ry="6.244" fill="#F8D24E"/><ellipse cx="92.758" cy="41.275" rx="5.858" ry="6.244" fill="#F8D24E"/><ellipse cx="107.404" cy="31.909" rx="5.858" ry="6.244" fill="#F8D24E"/><ellipse cx="121.074" cy="23.584" rx="5.858" ry="6.244" fill="#F8D24E"/><ellipse cx="110.334" cy="45.438" rx="5.858" ry="6.244" fill="#F8D24E"/><ellipse cx="123.027" cy="37.112" rx="5.858" ry="6.244" fill="#F8D24E"/><ellipse cx="137.673" cy="27.746" rx="5.858" ry="6.244" fill="#F8D24E"/><ellipse cx="151.343" cy="19.421" rx="5.858" ry="6.244" fill="#F8D24E"/><ellipse cx="165.989" cy="6.933" rx="5.858" ry="6.244" fill="#F8D24E"/><ellipse cx="28.316" cy="47.519" rx="5.858" ry="6.244" fill="#F8D24E"/><ellipse cx="41.009" cy="39.194" rx="5.858" ry="6.244" fill="#F8D24E"/><ellipse cx="55.655" cy="29.828" rx="5.858" ry="6.244" fill="#F8D24E"/><ellipse cx="69.324" cy="21.503" rx="5.858" ry="6.244" fill="#F8D24E"/></svg>