<svg width="286" height="110" fill="none" xmlns="http://www.w3.org/2000/svg"><ellipse cx="110.248" cy="102.672" rx="5.858" ry="6.239" fill="#F8D24E"/><ellipse cx="122.94" cy="94.353" rx="5.858" ry="6.239" fill="#F8D24E"/><ellipse cx="137.586" cy="84.995" rx="5.858" ry="6.239" fill="#F8D24E"/><ellipse cx="151.256" cy="76.677" rx="5.858" ry="6.239" fill="#F8D24E"/><ellipse cx="143.445" cy="98.513" rx="5.858" ry="6.239" fill="#F8D24E"/><ellipse cx="156.138" cy="90.194" rx="5.858" ry="6.239" fill="#F8D24E"/><ellipse cx="170.784" cy="80.836" rx="5.858" ry="6.239" fill="#F8D24E"/><ellipse cx="184.454" cy="72.518" rx="5.858" ry="6.239" fill="#F8D24E"/><ellipse cx="171.761" cy="95.393" rx="5.858" ry="6.239" fill="#F8D24E"/><ellipse cx="184.455" cy="87.075" rx="5.858" ry="6.239" fill="#F8D24E"/><ellipse cx="199.101" cy="77.717" rx="5.858" ry="6.239" fill="#F8D24E"/><ellipse cx="212.77" cy="69.398" rx="5.858" ry="6.239" fill="#F8D24E"/><ellipse cx="199.101" cy="91.234" rx="5.858" ry="6.239" fill="#F8D24E"/><ellipse cx="211.793" cy="82.916" rx="5.858" ry="6.239" fill="#F8D24E"/><ellipse cx="226.439" cy="73.557" rx="5.858" ry="6.239" fill="#F8D24E"/><ellipse cx="240.109" cy="65.239" rx="5.858" ry="6.239" fill="#F8D24E"/><ellipse cx="207.888" cy="102.672" rx="5.858" ry="6.239" fill="#F8D24E"/><ellipse cx="220.581" cy="94.353" rx="5.858" ry="6.239" fill="#F8D24E"/><ellipse cx="238.156" cy="103.712" rx="5.858" ry="6.239" fill="#F8D24E"/><ellipse cx="235.227" cy="84.995" rx="5.858" ry="6.239" fill="#F8D24E"/><ellipse cx="252.802" cy="94.353" rx="5.858" ry="6.239" fill="#F8D24E"/><ellipse cx="266.471" cy="103.712" rx="5.858" ry="6.239" fill="#F8D24E"/><ellipse cx="248.896" cy="76.677" rx="5.858" ry="6.239" fill="#F8D24E"/><ellipse cx="266.471" cy="86.035" rx="5.858" ry="6.239" fill="#F8D24E"/><ellipse cx="280.141" cy="95.393" rx="5.858" ry="6.239" fill="#F8D24E"/><ellipse cx="50.687" cy="34.045" rx="5.858" ry="6.239" fill="#F8D24E"/><ellipse cx="63.38" cy="25.727" rx="5.858" ry="6.239" fill="#F8D24E"/><ellipse cx="78.026" cy="16.369" rx="5.858" ry="6.239" fill="#F8D24E"/><ellipse cx="91.695" cy="8.05" rx="5.858" ry="6.239" fill="#F8D24E"/><ellipse cx="26.276" cy="33.005" rx="5.858" ry="6.239" fill="#F8D24E"/><ellipse cx="38.97" cy="24.687" rx="5.858" ry="6.239" fill="#F8D24E"/><ellipse cx="53.616" cy="15.329" rx="5.858" ry="6.239" fill="#F8D24E"/><ellipse cx="67.285" cy="7.01" rx="5.858" ry="6.239" fill="#F8D24E"/><ellipse cx="80.956" cy="102.672" rx="5.858" ry="6.239" fill="#F8D24E"/><ellipse cx="93.648" cy="94.353" rx="5.858" ry="6.239" fill="#F8D24E"/><ellipse cx="108.295" cy="84.995" rx="5.858" ry="6.239" fill="#F8D24E"/><ellipse cx="121.964" cy="76.677" rx="5.858" ry="6.239" fill="#F8D24E"/><ellipse cx="65.333" cy="96.433" rx="5.858" ry="6.239" fill="#F8D24E"/><ellipse cx="78.026" cy="88.115" rx="5.858" ry="6.239" fill="#F8D24E"/><ellipse cx="92.672" cy="78.757" rx="5.858" ry="6.239" fill="#F8D24E"/><ellipse cx="106.341" cy="70.438" rx="5.858" ry="6.239" fill="#F8D24E"/><ellipse cx="71.191" cy="74.597" rx="5.858" ry="6.239" fill="#F8D24E"/><ellipse cx="83.885" cy="66.279" rx="5.858" ry="6.239" fill="#F8D24E"/><ellipse cx="98.531" cy="56.921" rx="5.858" ry="6.239" fill="#F8D24E"/><ellipse cx="112.2" cy="48.602" rx="5.858" ry="6.239" fill="#F8D24E"/><ellipse cx="71.191" cy="38.204" rx="5.858" ry="6.239" fill="#F8D24E"/><ellipse cx="83.885" cy="29.886" rx="5.858" ry="6.239" fill="#F8D24E"/><ellipse cx="98.531" cy="20.528" rx="5.858" ry="6.239" fill="#F8D24E"/><ellipse cx="112.2" cy="12.209" rx="5.858" ry="6.239" fill="#F8D24E"/><ellipse cx="68.262" cy="57.96" rx="5.858" ry="6.239" fill="#F8D24E"/><ellipse cx="80.956" cy="49.642" rx="5.858" ry="6.239" fill="#F8D24E"/><ellipse cx="95.602" cy="40.284" rx="5.858" ry="6.239" fill="#F8D24E"/><ellipse cx="109.271" cy="31.965" rx="5.858" ry="6.239" fill="#F8D24E"/><ellipse cx="6.749" cy="27.806" rx="5.858" ry="6.239" fill="#F8D24E"/><ellipse cx="19.442" cy="19.488" rx="5.858" ry="6.239" fill="#F8D24E"/><ellipse cx="34.088" cy="10.13" rx="5.858" ry="6.239" fill="#F8D24E"/><path d="M33.112 34.045c3.235 0 5.858-2.793 5.858-6.239 0-3.445-2.623-6.239-5.858-6.239-3.236 0-5.859 2.794-5.859 6.24 0 3.445 2.623 6.238 5.859 6.238Z" fill="#F8D24E"/></svg>