<svg width="107" height="34" fill="none" xmlns="http://www.w3.org/2000/svg"><ellipse rx="2.643" ry="2.816" transform="matrix(.9869 -.16168 .14201 .98991 85.581 17.982)" fill="#F8D24E"/><ellipse rx="2.643" ry="2.816" transform="matrix(.9869 -.16168 .14201 .98991 90.7 13.34)" fill="#F8D24E"/><ellipse rx="2.643" ry="2.816" transform="matrix(.9869 -.16168 .14201 .98991 96.62 8.09)" fill="#F8D24E"/><ellipse rx="2.643" ry="2.816" transform="matrix(.9869 -.16168 .14201 .98991 102.173 3.377)" fill="#F8D24E"/><ellipse cx="2.72" cy="17.551" rx="2.72" ry="2.82" fill="#F8D24E"/><ellipse cx="8.611" cy="13.792" rx="2.72" ry="2.82" fill="#F8D24E"/><ellipse cx="15.413" cy="9.562" rx="2.72" ry="2.82" fill="#F8D24E"/><ellipse cx="21.758" cy="5.802" rx="2.72" ry="2.82" fill="#F8D24E"/><ellipse cx="5.44" cy="24.601" rx="2.72" ry="2.82" fill="#F8D24E"/><ellipse cx="11.333" cy="20.841" rx="2.72" ry="2.82" fill="#F8D24E"/><ellipse cx="18.134" cy="16.611" rx="2.72" ry="2.82" fill="#F8D24E"/><ellipse cx="24.479" cy="12.851" rx="2.72" ry="2.82" fill="#F8D24E"/><ellipse cx="12.238" cy="28.36" rx="2.72" ry="2.82" fill="#F8D24E"/><ellipse cx="18.132" cy="24.6" rx="2.72" ry="2.82" fill="#F8D24E"/><ellipse cx="24.931" cy="20.371" rx="2.72" ry="2.82" fill="#F8D24E"/><ellipse cx="31.276" cy="16.611" rx="2.72" ry="2.82" fill="#F8D24E"/><ellipse cx="19.943" cy="30.71" rx="2.72" ry="2.82" fill="#F8D24E"/><ellipse cx="25.836" cy="26.95" rx="2.72" ry="2.82" fill="#F8D24E"/><ellipse cx="32.638" cy="22.721" rx="2.72" ry="2.82" fill="#F8D24E"/><ellipse cx="38.981" cy="18.961" rx="2.72" ry="2.82" fill="#F8D24E"/><ellipse cx="29.917" cy="31.18" rx="2.72" ry="2.82" fill="#F8D24E"/><ellipse cx="35.81" cy="27.421" rx="2.72" ry="2.82" fill="#F8D24E"/><ellipse cx="42.61" cy="23.191" rx="2.72" ry="2.82" fill="#F8D24E"/><ellipse cx="48.955" cy="19.431" rx="2.72" ry="2.82" fill="#F8D24E"/><ellipse cx="41.704" cy="31.18" rx="2.72" ry="2.82" fill="#F8D24E"/><ellipse cx="47.596" cy="27.421" rx="2.72" ry="2.82" fill="#F8D24E"/><ellipse cx="54.396" cy="23.191" rx="2.72" ry="2.82" fill="#F8D24E"/><ellipse cx="60.742" cy="19.431" rx="2.72" ry="2.82" fill="#F8D24E"/><ellipse cx="51.674" cy="30.71" rx="2.72" ry="2.82" fill="#F8D24E"/><ellipse cx="57.566" cy="26.95" rx="2.72" ry="2.82" fill="#F8D24E"/><ellipse cx="64.367" cy="22.721" rx="2.72" ry="2.82" fill="#F8D24E"/><ellipse cx="70.712" cy="18.961" rx="2.72" ry="2.82" fill="#F8D24E"/><ellipse cx="63.006" cy="30.24" rx="2.72" ry="2.82" fill="#F8D24E"/><ellipse cx="68.898" cy="26.48" rx="2.72" ry="2.82" fill="#F8D24E"/><ellipse cx="75.699" cy="22.251" rx="2.72" ry="2.82" fill="#F8D24E"/><ellipse cx="82.044" cy="18.491" rx="2.72" ry="2.82" fill="#F8D24E"/><ellipse cx="73.432" cy="18.021" rx="2.72" ry="2.82" fill="#F8D24E"/><ellipse cx="79.324" cy="14.261" rx="2.72" ry="2.82" fill="#F8D24E"/><ellipse cx="86.124" cy="10.032" rx="2.72" ry="2.82" fill="#F8D24E"/><ellipse cx="92.47" cy="6.272" rx="2.72" ry="2.82" fill="#F8D24E"/></svg>