<svg aria-hidden="true" style="width:0;height:0;position:absolute;overflow:hidden" xmlns="http://www.w3.org/2000/svg"><defs><symbol id="icon-weight" viewBox="0 0 32 32"><path d="M14.178.547c-3.974.589-7.247 2.796-8.452 5.685-.384.913-.487 1.474-.487 2.573.007.812.036 1.114.163 1.552.258.862.443 1.301.827 1.92l.356.574-.4.489c-3.154 3.924-3.501 9.444-.871 13.793.982 1.632 2.586 3.235 4.151 4.169l.466.273 12.743-.108.302-.165c1.057-.596 2.548-1.926 3.383-3.004a12.51 12.51 0 0 0 2.413-5.546l.01-.074c.118-.74.118-2.933-.007-3.63-.377-2.148-1.182-3.988-2.452-5.62-.244-.309-.436-.568-.436-.589 0-.014.133-.237.288-.489a7.623 7.623 0 0 0 .85-1.907l.014-.055c.199-.719.199-2.516 0-3.235-.709-2.551-2.836-4.679-5.843-5.851-.843-.331-2.284-.683-3.214-.797-.864-.1-2.999-.08-3.804.043zm4.498 1.171c3.945.769 6.834 3.184 7.365 6.16.118.668.044 1.804-.155 2.436-.2.618-.569 1.344-1.004 1.963-.178.252-.325.539-.325.632s.155.338.377.582c1.846 2.049 2.821 4.614 2.821 7.388-.007 3.156-1.219 5.923-3.553 8.093-.399.373-.968.841-1.271 1.042l-.554.373-12.211.051-.473-.302c-1.714-1.113-3.258-2.953-4.115-4.908-1.078-2.472-1.189-5.34-.31-7.913.466-1.337 1.086-2.429 2.031-3.58.385-.46.562-.733.562-.862 0-.108-.192-.46-.444-.827-.886-1.287-1.248-2.717-1.034-4.068.222-1.365.842-2.487 1.987-3.6 1.493-1.445 3.576-2.402 6.021-2.761 1.012-.151 3.25-.093 4.284.1z"/><path d="M14.509 2.983c-3.029.496-5.4 2.178-6.176 4.385-.178.496-.206.69-.206 1.401s.029.907.206 1.402c.111.316.318.756.459.978.384.618.554.64 1.315.18a11.719 11.719 0 0 1 3.727-1.474l.078-.014c.916-.187 2.674-.258 3.671-.143 1.558.18 3.251.74 4.602 1.538.385.222.776.409.872.409.562 0 1.278-1.617 1.278-2.875 0-2.796-2.675-5.189-6.464-5.786-.805-.129-2.586-.129-3.361 0zm3.656 1.15c1.271.273 2.438.791 3.317 1.474 1.182.913 1.817 2.185 1.714 3.413-.037.489-.222 1.15-.332 1.222-.029.014-.444-.158-.916-.388a14.138 14.138 0 0 0-3.131-1.081l-.097-.018c-.687-.143-.975-.165-2.512-.158-1.514 0-1.831.022-2.489.158a13.26 13.26 0 0 0-3.195 1.099l.078-.035c-1.101.524-1.042.532-1.242-.116-.258-.84-.096-1.955.407-2.796.266-.445.996-1.186 1.529-1.552 1.012-.698 1.899-1.013 3.804-1.359.391-.071 2.563.029 3.065.137zm-1.202 9.271c-.207.26-.207.504.007.712.14.137.281.172.791.209a6.489 6.489 0 0 1 2.815.865l-.031-.017c.606.359 1.529 1.229 1.943 1.854.613.898 1.034 2.185 1.034 3.134 0 .331.03.431.185.574.236.237.547.237.776 0 .163-.165.169-.208.125-.912-.207-3.479-3.184-6.382-6.744-6.578l-.74-.043-.162.202z"/></symbol><symbol id="icon-telegram" viewBox="0 0 32 32"><path d="m12.869 18.376-.318 4.169c.455 0 .651-.183.888-.401l2.131-1.901 4.414 3.018c.809.421 1.38.199 1.598-.696l2.899-12.673c.257-1.117-.433-1.554-1.222-1.28L6.227 14.698c-1.162.422-1.144 1.026-.198 1.301l4.355 1.264 10.115-5.907c.475-.295.908-.132.552.163l-8.182 6.856z"/></symbol><symbol id="icon-modal-close" viewBox="0 0 32 32"><path d="m17.253 16 7.37-7.37a.89.89 0 0 0-1.256-1.252l.001-.001L16 14.747 8.63 7.369a.893.893 0 0 0-1.262 1.262l-.001-.001L14.745 16l-7.376 7.368a.89.89 0 1 0 1.252 1.256l.001-.001 7.376-7.37 7.37 7.37a.89.89 0 0 0 1.254-1.256l.001.001L17.253 16z"/></symbol><symbol id="icon-mobil-menu" viewBox="0 0 32 32"><path d="M26.733 14H5.267c-.7 0-1.267.425-1.267.95v.1c0 .525.567.95 1.267.95h21.466c.7 0 1.267-.425 1.267-.95v-.1c0-.525-.567-.95-1.267-.95zm0 6H5.267c-.7 0-1.267.425-1.267.95v.1c0 .525.567.95 1.267.95h21.466c.7 0 1.267-.425 1.267-.95v-.1c0-.525-.567-.95-1.267-.95zm0-12H5.267C4.567 8 4 8.425 4 8.95v.1c0 .525.567.95 1.267.95h21.466c.7 0 1.267-.425 1.267-.95v-.1c0-.525-.567-.95-1.267-.95z"/></symbol><symbol id="icon-icon-menu-close" viewBox="0 0 32 32"><path d="M23.884 6.706 16 14.59 8.116 6.706a.996.996 0 0 0-1.672.736c0 .26.099.497.262.674l-.001-.001 7.88 7.884-7.882 7.882a.998.998 0 0 0 1.41 1.412l7.886-7.882 7.884 7.884a.996.996 0 0 0 1.672-.736.992.992 0 0 0-.262-.674l.001.001-7.884-7.884 7.884-7.886a.998.998 0 0 0-1.41-1.412v.002z"/></symbol><symbol id="icon-ice-crema" viewBox="0 0 32 32"><path d="M16.108.107c.08.215.241 1.252.241 1.573v.011c0 .818-.318 1.561-.838 2.114l.001-.002c-.449.482-.898.749-1.975 1.185-1.198.489-1.694.783-2.256 1.339-.569.569-.904 1.191-1.024 1.922-.134.796 0 1.358.408 1.68l.207.16-.328.208c-.662.436-1.867 1.46-2.075 1.774-.402.603-.362 1.164.093 1.393l.214.107-.241.228c-.362.341-.436.576-.382 1.191.034.409.02.63-.073.964-.114.436-.114.442.033.75.148.301.563.683.938.844.18.08.187.107.228.723.02.356.053 1.486.08 2.517.02 1.031.068 1.975.107 2.089.034.12.161.281.276.361.388.268.656.556.829.891.195.382.409 1.319 1.058 4.559l.455 2.276.282.268c.535.529 1.56.77 3.247.77 1.693 0 2.704-.235 3.24-.764l.288-.274.414-2.109c.916-4.612.997-4.867 1.714-5.436.22-.181.436-.402.475-.502.047-.114.094-.991.127-2.316.027-1.178.068-2.343.094-2.591l.04-.448.436-.329c.548-.421.763-.803.763-1.392-.006-.696-.462-1.46-1.292-2.142l-.396-.321.195-.276c.81-1.117.301-2.664-1.205-3.694l-.455-.315.167-.174c.743-.796.864-3.173.241-4.827-.374-.984-1.232-2.055-2.283-2.845-.514-.388-1.934-1.245-2.06-1.245-.027 0-.027.047-.006.107zm1.928 2.337c.356.348.783.823.951 1.064.997 1.393 1.252 3.14.649 4.426-.241.522-.964 1.298-1.634 1.76-1.024.71-3.327 1.902-4.933 2.557-2.584 1.052-4.084 1.252-4.258.563-.068-.261.127-.468.951-1.018.742-.508 4.076-2.986 4.136-3.086.02-.027-.321.127-.749.341-1.452.737-2.142.596-2.108-.428.02-.743.556-1.587 1.298-2.068.188-.12.771-.388 1.307-.603 1.76-.709 2.296-1.071 2.892-1.961.356-.529.743-1.507.77-1.922.007-.147.034-.261.053-.261s.322.288.676.636zm1.827 7.606c.489.274.997.743 1.218 1.111.389.662.188 1.325-.649 2.169-.91.924-2.463 1.808-4.171 2.37-1.573.516-3.079.756-5.236.83l-1.339.047.871.053c1.124.074 3.3.007 4.143-.127 2.243-.356 4.151-1.065 5.516-2.042.308-.221.629-.402.716-.402.221 0 1.185.924 1.38 1.312.107.221.133.382.114.596-.1.891-1.186 1.366-3.803 1.68-3.2.382-7.384.007-9.172-.816-.844-.388-.984-.61-.77-1.198.067-.188.08-.409.053-.724-.034-.415-.027-.468.12-.622.335-.362.898-.569 2.96-1.092.723-.187 1.707-.482 2.175-.656 1.138-.415 3.274-1.493 4.264-2.156.931-.616 1.065-.643 1.607-.334zm-8.891 8.194c1.406.409 2.652.529 4.968.482 1.74-.033 2.812-.14 4.357-.415.316-.053.589-.1.623-.1.074 0 .053 2.571-.027 3.247-.087.716-.282 1.272-.489 1.406-.214.14-1.285.288-2.718.368-2.939.16-5.958 0-6.895-.375-.508-.207-.563-.476-.569-2.959 0-1.653.013-1.881.1-1.847.053.02.348.107.649.194zm1.587 5.69c.482.06 1.004.12 1.164.14l.289.034-.255.281c-.328.355-.83 1.064-1.011 1.426-.207.415-.275.442-.582.275l-.261-.148-.147-.91a23.34 23.34 0 0 0-.216-1.217l.028.165c-.06-.173-.121-.173.99-.046zm7.137-.074c0 .013-.034.187-.068.382-.04.2-.207 1.292-.374 2.429-.341 2.377-.569 3.494-.777 3.869-.288.502-.978.796-2.095.891-.436.034-1.748-.053-1.821-.121-.053-.06 1.098-1.486 1.279-1.58.167-.094.213-.08.782.213.663.349.998.403.998.181s-.174-.436-.603-.729c-.395-.282-.535-.443-.535-.63 0-.053.194-.355.428-.669s.575-.817.749-1.118l.329-.542.3.041c.609.087.77.08.75-.053-.013-.068-.127-.261-.255-.422-.127-.167-.228-.335-.228-.368 0-.127.622-1.299.824-1.547.174-.214.315-.322.315-.228zm-4.184.536c.334.221 1.593 1.313 1.673 1.446.034.06-1.258 2.082-1.513 2.37-.027.034-.167-.033-.308-.14a20.117 20.117 0 0 0-1.08-.752l-.085-.052-.904-.596.542-.917c.964-1.613.944-1.587 1.151-1.587.107 0 .341.1.523.228zm2.537.24c-.235.288-.428.469-.508.469-.174 0-.456-.154-.931-.502l-.396-.288.791-.047c.348-.013.665-.034.98-.065l-.064.005c.536-.087.536-.08.128.428zm-5.061 3.221c.616.241 1.66.81 1.962 1.065.214.173.214.187.127.401a6.654 6.654 0 0 1-.43.741l.015-.024a10.9 10.9 0 0 0-.417.682l-.032.061c-.213.415-.281.449-.723.329-.476-.141-.729-.382-.863-.818-.181-.609-.469-2.329-.436-2.597.013-.1.294-.04.796.161z"/></symbol><symbol id="icon-github" viewBox="0 0 32 32"><path d="M16 6.588c-5.17 0-9.412 4.242-9.412 9.412 0 4.411 3.096 8.419 7.206 9.412v-3.113a2.314 2.314 0 0 1-1.196-.031c-.556-.164-1.008-.535-1.344-1.099-.214-.36-.593-.753-.988-.724l-.097-1.098c.856-.073 1.594.521 2.033 1.258.196.328.421.52.709.605.278.083.577.043.925-.08.088-.697.408-.958.649-1.327-2.452-.365-3.429-1.666-3.816-2.692-.514-1.364-.238-3.066.67-4.143.018-.021.05-.075.038-.113-.417-1.259.09-2.3.109-2.41.481.141.559-.143 2.089.786l.264.159c.111.066.075.028.186.019a7.787 7.787 0 0 1 1.97-.276h.006a8.021 8.021 0 0 1 2.002.284l.086.009c-.008-.002.024-.006.075-.037 1.911-1.158 1.842-.779 2.355-.946.019.111.519 1.169.106 2.411-.056.171 1.656 1.739.708 4.256-.388 1.026-1.365 2.328-3.816 2.693.314.48.692.734.69 1.722v3.886c4.109-.993 7.206-5 7.206-9.412 0-5.17-4.242-9.412-9.412-9.412z"/></symbol><symbol id="icon-facebook" viewBox="0 0 32 32"><path d="M20.446 15.981h-2.611V25.6H13.88v-9.619H12v-3.379h1.88v-2.187c0-1.564.739-4.014 3.991-4.014l2.929.012v3.281h-2.125c-.348 0-.839.176-.839.922v1.989h2.955l-.345 3.377z"/></symbol><symbol id="icon-dots-tablet" viewBox="0 0 356 32"><path d="M306.022 29.57c0 1.021-.832 1.849-1.857 1.849s-1.857-.828-1.857-1.849.832-1.849 1.857-1.849 1.857.828 1.857 1.849zM309.737 27.258c0 1.021-.832 1.849-1.857 1.849s-1.857-.828-1.857-1.849.832-1.849 1.857-1.849 1.857.828 1.857 1.849zM314.38 24.485c0 1.021-.832 1.849-1.857 1.849s-1.857-.828-1.857-1.849.832-1.849 1.857-1.849 1.857.828 1.857 1.849zM318.095 22.173c0 1.021-.832 1.849-1.857 1.849s-1.857-.828-1.857-1.849.832-1.849 1.857-1.849 1.857.828 1.857 1.849zM315.773 28.646c0 1.021-.832 1.849-1.857 1.849s-1.857-.828-1.857-1.849.832-1.849 1.857-1.849 1.857.828 1.857 1.849zM319.488 26.334c0 1.021-.832 1.849-1.857 1.849s-1.857-.828-1.857-1.849.832-1.849 1.857-1.849 1.857.828 1.857 1.849zM324.132 23.56c0 1.021-.832 1.849-1.857 1.849s-1.857-.828-1.857-1.849.832-1.849 1.857-1.849 1.857.828 1.857 1.849zM327.847 21.248c0 1.021-.832 1.849-1.857 1.849s-1.857-.828-1.857-1.849.832-1.849 1.857-1.849 1.857.828 1.857 1.849zM324.132 27.721c0 1.021-.832 1.849-1.857 1.849s-1.857-.828-1.857-1.849.832-1.849 1.857-1.849 1.857.828 1.857 1.849zM327.847 25.409c0 1.021-.832 1.849-1.857 1.849s-1.857-.828-1.857-1.849.832-1.849 1.857-1.849 1.857.828 1.857 1.849zM332.491 22.635c0 1.021-.832 1.849-1.857 1.849s-1.857-.828-1.857-1.849.832-1.849 1.857-1.849 1.857.828 1.857 1.849zM336.206 20.323c0 1.021-.832 1.849-1.857 1.849s-1.857-.828-1.857-1.849.832-1.849 1.857-1.849 1.857.828 1.857 1.849zM332.491 26.334c0 1.021-.832 1.849-1.857 1.849s-1.857-.828-1.857-1.849.832-1.849 1.857-1.849 1.857.828 1.857 1.849zM336.206 24.022c0 1.021-.832 1.849-1.857 1.849s-1.857-.828-1.857-1.849.832-1.849 1.857-1.849 1.857.828 1.857 1.849zM340.85 21.248c0 1.021-.832 1.849-1.857 1.849s-1.857-.828-1.857-1.849.832-1.849 1.857-1.849 1.857.828 1.857 1.849zM344.564 18.936c0 1.021-.832 1.849-1.857 1.849s-1.857-.828-1.857-1.849.832-1.849 1.857-1.849 1.857.828 1.857 1.849zM334.813 29.57c0 1.021-.832 1.849-1.857 1.849s-1.857-.828-1.857-1.849.832-1.849 1.857-1.849 1.857.828 1.857 1.849zM338.528 27.258c0 1.021-.832 1.849-1.857 1.849s-1.857-.828-1.857-1.849.832-1.849 1.857-1.849 1.857.828 1.857 1.849zM343.636 30.033c0 1.021-.832 1.849-1.857 1.849s-1.857-.828-1.857-1.849.832-1.849 1.857-1.849 1.857.828 1.857 1.849zM343.171 24.485c0 1.021-.832 1.849-1.857 1.849s-1.857-.828-1.857-1.849.832-1.849 1.857-1.849 1.857.828 1.857 1.849zM348.279 27.258c0 1.021-.832 1.849-1.857 1.849s-1.857-.828-1.857-1.849.832-1.849 1.857-1.849 1.857.828 1.857 1.849zM352.459 30.033c0 1.021-.832 1.849-1.857 1.849s-1.857-.828-1.857-1.849.832-1.849 1.857-1.849 1.857.828 1.857 1.849zM346.887 22.173c0 1.021-.832 1.849-1.857 1.849s-1.857-.828-1.857-1.849.832-1.849 1.857-1.849 1.857.828 1.857 1.849zM352.459 24.947c0 1.021-.832 1.849-1.857 1.849s-1.857-.828-1.857-1.849.832-1.849 1.857-1.849 1.857.828 1.857 1.849zM356.174 27.721c0 1.021-.832 1.849-1.857 1.849s-1.857-.828-1.857-1.849.832-1.849 1.857-1.849 1.857.828 1.857 1.849zM288.376 10.151c0 1.021-.832 1.849-1.857 1.849s-1.857-.828-1.857-1.849.832-1.849 1.857-1.849 1.857.828 1.857 1.849zM292.09 7.839c0 1.021-.832 1.849-1.857 1.849s-1.857-.828-1.857-1.849.832-1.849 1.857-1.849 1.857.828 1.857 1.849zM296.734 5.065c0 1.021-.832 1.849-1.857 1.849s-1.857-.828-1.857-1.849.832-1.849 1.857-1.849 1.857.828 1.857 1.849zM300.449 2.753c0 1.021-.832 1.85-1.857 1.85s-1.857-.828-1.857-1.849.832-1.849 1.857-1.849 1.857.828 1.857 1.849zM280.946 9.689c0 1.021-.832 1.85-1.857 1.85s-1.857-.828-1.857-1.849.832-1.849 1.857-1.849 1.857.828 1.857 1.849zM284.66 7.377c0 1.021-.832 1.849-1.857 1.849s-1.857-.828-1.857-1.849.832-1.849 1.857-1.849 1.857.828 1.857 1.849zM289.304 4.602c0 1.021-.832 1.849-1.857 1.849s-1.857-.828-1.857-1.849.832-1.849 1.857-1.849 1.857.828 1.857 1.849zM293.019 2.291c0 1.021-.832 1.849-1.857 1.849s-1.857-.828-1.857-1.849.832-1.849 1.857-1.849 1.857.828 1.857 1.849zM297.198 29.57c0 1.021-.832 1.849-1.857 1.849s-1.857-.828-1.857-1.849.832-1.849 1.857-1.849 1.857.828 1.857 1.849zM300.914 27.258c0 1.021-.832 1.849-1.857 1.849s-1.857-.828-1.857-1.849.832-1.849 1.857-1.849 1.857.828 1.857 1.849zM305.557 24.485c0 1.021-.832 1.849-1.857 1.849s-1.857-.828-1.857-1.849.832-1.849 1.857-1.849 1.857.828 1.857 1.849zM309.272 22.173c0 1.021-.832 1.849-1.857 1.849s-1.857-.828-1.857-1.849.832-1.849 1.857-1.849 1.857.828 1.857 1.849zM292.555 28.183c0 1.021-.832 1.849-1.857 1.849s-1.857-.828-1.857-1.849.832-1.849 1.857-1.849 1.857.828 1.857 1.849zM296.269 25.871c0 1.021-.832 1.849-1.857 1.849s-1.857-.828-1.857-1.849.832-1.849 1.857-1.849 1.857.828 1.857 1.849zM300.914 23.098c0 1.021-.832 1.849-1.857 1.849s-1.857-.828-1.857-1.849.832-1.849 1.857-1.849 1.857.828 1.857 1.849zM304.628 20.786c0 1.021-.832 1.849-1.857 1.849s-1.857-.828-1.857-1.849.832-1.849 1.857-1.849 1.857.828 1.857 1.849zM294.413 21.71c0 1.021-.832 1.849-1.857 1.849s-1.857-.828-1.857-1.849.832-1.849 1.857-1.849 1.857.828 1.857 1.849zM298.127 19.398c0 1.021-.832 1.849-1.857 1.849s-1.857-.828-1.857-1.849.832-1.849 1.857-1.849 1.857.828 1.857 1.849zM302.771 16.624c0 1.021-.832 1.849-1.857 1.849s-1.857-.828-1.857-1.849.832-1.849 1.857-1.849 1.857.828 1.857 1.849zM306.486 14.312c0 1.021-.832 1.849-1.857 1.849s-1.857-.828-1.857-1.849.832-1.849 1.857-1.849 1.857.828 1.857 1.849zM294.413 11.076c0 1.021-.832 1.849-1.857 1.849s-1.857-.828-1.857-1.849.832-1.849 1.857-1.849 1.857.828 1.857 1.849zM298.127 8.764c0 1.021-.832 1.849-1.857 1.849s-1.857-.828-1.857-1.849.832-1.849 1.857-1.849 1.857.828 1.857 1.849zM302.771 5.99c0 1.021-.832 1.849-1.857 1.849s-1.857-.828-1.857-1.849.832-1.849 1.857-1.849 1.857.828 1.857 1.849zM306.486 3.678c0 1.021-.832 1.849-1.857 1.849s-1.857-.828-1.857-1.849.832-1.849 1.857-1.849 1.857.828 1.857 1.849zM293.484 17.087c0 1.021-.832 1.849-1.857 1.849s-1.857-.828-1.857-1.849.832-1.849 1.857-1.849 1.857.828 1.857 1.849zM297.198 14.775c0 1.021-.832 1.85-1.857 1.85s-1.857-.828-1.857-1.849.832-1.849 1.857-1.849 1.857.828 1.857 1.849zM301.842 12c0 1.021-.832 1.849-1.857 1.849s-1.857-.828-1.857-1.849.832-1.849 1.857-1.849 1.857.828 1.857 1.849zM305.557 9.689c0 1.021-.832 1.85-1.857 1.85s-1.857-.828-1.857-1.849.832-1.849 1.857-1.849 1.857.828 1.857 1.849zM274.909 8.301c0 1.021-.728 1.85-1.625 1.85s-1.625-.828-1.625-1.849.728-1.849 1.625-1.849 1.625.828 1.625 1.849zM278.624 5.99c0 1.021-.728 1.849-1.625 1.849s-1.625-.828-1.625-1.849.728-1.849 1.625-1.849 1.625.828 1.625 1.849zM283.268 3.215c0 1.021-.728 1.85-1.625 1.85s-1.625-.828-1.625-1.849.728-1.849 1.625-1.849 1.625.828 1.625 1.849z"/><path d="M281.178 10.151c.898 0 1.625-.828 1.625-1.849s-.728-1.849-1.625-1.849-1.625.828-1.625 1.849.728 1.849 1.625 1.849zM3.715 27.362a1.856 1.856 0 1 1-3.712-.002 1.856 1.856 0 0 1 3.712.002zM7.43 25.043a1.856 1.856 0 1 1-3.712-.002 1.856 1.856 0 0 1 3.712.002zM12.074 22.261a1.856 1.856 0 1 1-3.712-.002 1.856 1.856 0 0 1 3.712.002zM15.789 19.942a1.856 1.856 0 1 1-3.712-.002 1.856 1.856 0 0 1 3.712.002zM26.005 28.29a1.856 1.856 0 1 1-3.712-.002 1.856 1.856 0 0 1 3.712.002zM29.72 25.971a1.856 1.856 0 1 1-3.712-.002 1.856 1.856 0 0 1 3.712.002zM34.363 23.188a1.856 1.856 0 1 1-3.712-.002 1.856 1.856 0 0 1 3.712.002zM38.079 20.87a1.856 1.856 0 1 1-3.712-.002 1.856 1.856 0 0 1 3.712.002z"/><path d="M34.364 26.899c0 1.025-.728 1.855-1.626 1.855s-1.625-.831-1.625-1.855c0-1.025.728-1.855 1.625-1.855s1.626.831 1.626 1.855zM38.079 24.58c0 1.025-.728 1.855-1.626 1.855s-1.626-.831-1.626-1.855c0-1.025.728-1.855 1.626-1.855s1.626.831 1.626 1.855zM42.258 22.261c0 1.025-.728 1.855-1.626 1.855s-1.626-.831-1.626-1.855c0-1.025.728-1.855 1.626-1.855s1.626.831 1.626 1.855zM46.438 19.942c0 1.025-.728 1.855-1.626 1.855s-1.626-.831-1.626-1.855c0-1.025.728-1.855 1.626-1.855s1.626.831 1.626 1.855zM51.081 16.232c0 1.025-.728 1.855-1.626 1.855s-1.626-.831-1.626-1.855c0-1.025.728-1.855 1.626-1.855s1.626.831 1.626 1.855zM41.33 18.087c0 1.025-.728 1.855-1.626 1.855s-1.626-.831-1.626-1.855c0-1.025.728-1.855 1.626-1.855s1.626.831 1.626 1.855zM17.646 28.29a1.856 1.856 0 1 1-3.712-.002 1.856 1.856 0 0 1 3.712.002zM21.361 25.971a1.856 1.856 0 1 1-3.712-.002 1.856 1.856 0 0 1 3.712.002zM26.005 23.188a1.856 1.856 0 1 1-3.712-.002 1.856 1.856 0 0 1 3.712.002zM29.72 20.87a1.856 1.856 0 1 1-3.712-.002 1.856 1.856 0 0 1 3.712.002zM10.216 27.826a1.856 1.856 0 1 1-3.712-.002 1.856 1.856 0 0 1 3.712.002zM13.931 25.507a1.856 1.856 0 1 1-3.712-.002 1.856 1.856 0 0 1 3.712.002zM18.575 22.725a1.856 1.856 0 1 1-3.712-.002 1.856 1.856 0 0 1 3.712.002zM22.29 20.406a1.856 1.856 0 1 1-3.712-.002 1.856 1.856 0 0 1 3.712.002z"/></symbol><symbol id="icon-dots-mobile" viewBox="0 0 205 32"><path d="M156.54 29.617c0 .982-.745 1.779-1.664 1.779s-1.664-.796-1.664-1.779c0-.982.745-1.779 1.664-1.779s1.664.796 1.664 1.779zM160.146 27.245c0 .982-.745 1.779-1.664 1.779s-1.664-.796-1.664-1.779c0-.982.745-1.779 1.664-1.779s1.664.796 1.664 1.779zM164.305 24.578c0 .982-.745 1.779-1.664 1.779s-1.664-.796-1.664-1.779c0-.982.745-1.779 1.664-1.779s1.664.796 1.664 1.779zM168.189 22.207c0 .982-.745 1.779-1.664 1.779s-1.664-.796-1.664-1.779c0-.982.745-1.779 1.664-1.779s1.664.796 1.664 1.779zM165.969 28.431c0 .982-.745 1.779-1.664 1.779s-1.664-.796-1.664-1.779c0-.982.745-1.779 1.664-1.779s1.664.796 1.664 1.779zM169.575 26.06c0 .982-.745 1.779-1.664 1.779s-1.664-.796-1.664-1.779c0-.982.745-1.779 1.664-1.779s1.664.796 1.664 1.779zM173.734 23.392c0 .982-.745 1.779-1.664 1.779s-1.664-.796-1.664-1.779c0-.982.745-1.779 1.664-1.779s1.664.796 1.664 1.779zM177.619 21.021c0 .982-.745 1.779-1.664 1.779s-1.664-.796-1.664-1.779c0-.982.745-1.779 1.664-1.779s1.664.796 1.664 1.779zM174.013 27.542c0 .982-.745 1.779-1.664 1.779s-1.664-.796-1.664-1.779c0-.982.745-1.779 1.664-1.779s1.664.796 1.664 1.779zM177.619 25.171c0 .982-.745 1.779-1.664 1.779s-1.664-.796-1.664-1.779c0-.982.745-1.779 1.664-1.779s1.664.796 1.664 1.779zM181.779 22.503c0 .982-.745 1.779-1.664 1.779s-1.664-.796-1.664-1.779c0-.982.745-1.779 1.664-1.779s1.664.796 1.664 1.779zM185.661 20.132c0 .982-.745 1.779-1.664 1.779s-1.664-.796-1.664-1.779c0-.982.745-1.779 1.664-1.779s1.664.796 1.664 1.779zM181.778 26.356c0 .982-.745 1.779-1.664 1.779s-1.664-.796-1.664-1.779c0-.982.745-1.779 1.664-1.779s1.664.796 1.664 1.779zM185.383 23.985c0 .982-.745 1.779-1.664 1.779s-1.664-.796-1.664-1.779c0-.982.745-1.779 1.664-1.779s1.664.796 1.664 1.779zM189.543 21.318c0 .982-.745 1.779-1.664 1.779s-1.664-.796-1.664-1.779c0-.982.745-1.779 1.664-1.779s1.664.796 1.664 1.779zM193.427 18.947c0 .982-.745 1.779-1.664 1.779s-1.664-.796-1.664-1.779c0-.982.745-1.779 1.664-1.779s1.664.796 1.664 1.779zM184.276 29.617c0 .982-.745 1.779-1.664 1.779s-1.664-.796-1.664-1.779c0-.982.745-1.779 1.664-1.779s1.664.796 1.664 1.779zM187.882 27.245c0 .982-.745 1.779-1.664 1.779s-1.664-.796-1.664-1.779c0-.982.745-1.779 1.664-1.779s1.664.796 1.664 1.779zM192.874 29.913c0 .982-.745 1.779-1.664 1.779s-1.664-.796-1.664-1.779c0-.982.745-1.779 1.664-1.779s1.664.796 1.664 1.779zM192.042 24.578c0 .982-.745 1.779-1.664 1.779s-1.664-.796-1.664-1.779c0-.982.745-1.779 1.664-1.779s1.664.796 1.664 1.779zM197.034 27.245c0 .982-.745 1.779-1.664 1.779s-1.664-.796-1.664-1.779c0-.982.745-1.779 1.664-1.779s1.664.796 1.664 1.779zM200.918 29.913c0 .982-.745 1.779-1.664 1.779s-1.664-.796-1.664-1.779c0-.982.745-1.779 1.664-1.779s1.664.796 1.664 1.779zM195.925 22.207c0 .982-.745 1.779-1.664 1.779s-1.664-.796-1.664-1.779c0-.982.745-1.779 1.664-1.779s1.664.796 1.664 1.779zM200.918 24.874c0 .982-.745 1.779-1.664 1.779s-1.664-.796-1.664-1.779c0-.982.745-1.779 1.664-1.779s1.664.796 1.664 1.779zM204.801 27.542c0 .982-.745 1.779-1.664 1.779s-1.664-.796-1.664-1.779c0-.982.745-1.779 1.664-1.779s1.664.796 1.664 1.779zM139.622 10.055c0 .982-.745 1.779-1.664 1.779s-1.664-.796-1.664-1.779c0-.982.745-1.779 1.664-1.779s1.664.796 1.664 1.779zM143.227 7.684c0 .982-.745 1.779-1.664 1.779s-1.664-.796-1.664-1.779c0-.982.745-1.779 1.664-1.779s1.664.796 1.664 1.779zM147.388 5.016c0 .982-.745 1.779-1.664 1.779s-1.664-.796-1.664-1.779c0-.982.745-1.779 1.664-1.779s1.664.796 1.664 1.779zM151.27 2.645c0 .982-.745 1.779-1.664 1.779s-1.664-.796-1.664-1.779c0-.982.745-1.779 1.664-1.779s1.664.796 1.664 1.779zM132.687 9.758c0 .982-.745 1.779-1.664 1.779s-1.664-.796-1.664-1.779c0-.982.745-1.779 1.664-1.779s1.664.796 1.664 1.779zM136.292 7.387c0 .982-.745 1.779-1.664 1.779s-1.664-.796-1.664-1.779c0-.982.745-1.779 1.664-1.779s1.664.796 1.664 1.779zM140.452 4.72c0 .982-.745 1.779-1.664 1.779s-1.664-.796-1.664-1.779c0-.982.745-1.779 1.664-1.779s1.664.796 1.664 1.779zM144.335 2.349c0 .982-.745 1.779-1.664 1.779s-1.664-.796-1.664-1.779c0-.982.745-1.779 1.664-1.779s1.664.796 1.664 1.779zM148.219 29.617c0 .982-.745 1.779-1.664 1.779s-1.664-.796-1.664-1.779c0-.982.745-1.779 1.664-1.779s1.664.796 1.664 1.779zM151.824 27.245c0 .982-.745 1.779-1.664 1.779s-1.664-.796-1.664-1.779c0-.982.745-1.779 1.664-1.779s1.664.796 1.664 1.779zM155.984 24.578c0 .982-.745 1.779-1.664 1.779s-1.664-.796-1.664-1.779c0-.982.745-1.779 1.664-1.779s1.664.796 1.664 1.779zM159.868 22.207c0 .982-.745 1.779-1.664 1.779s-1.664-.796-1.664-1.779c0-.982.745-1.779 1.664-1.779s1.664.796 1.664 1.779zM143.781 27.839c0 .982-.745 1.779-1.664 1.779s-1.664-.796-1.664-1.779c0-.982.745-1.779 1.664-1.779s1.664.796 1.664 1.779zM147.387 25.468c0 .982-.745 1.779-1.664 1.779s-1.664-.796-1.664-1.779c0-.982.745-1.779 1.664-1.779s1.664.796 1.664 1.779zM151.547 22.799c0 .982-.745 1.779-1.664 1.779s-1.664-.796-1.664-1.779c0-.982.745-1.779 1.664-1.779s1.664.796 1.664 1.779zM155.43 20.429c0 .982-.745 1.779-1.664 1.779s-1.664-.796-1.664-1.779c0-.982.745-1.779 1.664-1.779s1.664.796 1.664 1.779zM145.446 21.614c0 .982-.745 1.779-1.664 1.779s-1.664-.796-1.664-1.779c0-.982.745-1.779 1.664-1.779s1.664.796 1.664 1.779zM149.051 19.243c0 .982-.745 1.779-1.664 1.779s-1.664-.796-1.664-1.779c0-.982.745-1.779 1.664-1.779s1.664.796 1.664 1.779zM153.212 16.575c0 .982-.745 1.779-1.664 1.779s-1.664-.796-1.664-1.779c0-.982.745-1.779 1.664-1.779s1.664.796 1.664 1.779zM157.094 14.204c0 .982-.745 1.779-1.664 1.779s-1.664-.796-1.664-1.779c0-.982.745-1.779 1.664-1.779s1.664.796 1.664 1.779zM145.446 11.24c0 .982-.745 1.779-1.664 1.779s-1.664-.796-1.664-1.779c0-.982.745-1.779 1.664-1.779s1.664.796 1.664 1.779zM149.051 8.869c0 .982-.745 1.779-1.664 1.779s-1.664-.796-1.664-1.779c0-.982.745-1.779 1.664-1.779s1.664.796 1.664 1.779zM153.212 6.202c0 .982-.745 1.779-1.664 1.779s-1.664-.796-1.664-1.779c0-.982.745-1.779 1.664-1.779s1.664.796 1.664 1.779zM157.094 3.83c0 .982-.745 1.779-1.664 1.779s-1.664-.796-1.664-1.779c0-.982.745-1.779 1.664-1.779s1.664.796 1.664 1.779zM144.613 16.872c0 .982-.745 1.779-1.664 1.779s-1.664-.796-1.664-1.779c0-.982.745-1.779 1.664-1.779s1.664.796 1.664 1.779zM148.22 14.5c0 .982-.745 1.779-1.664 1.779s-1.664-.796-1.664-1.779c0-.982.745-1.779 1.664-1.779s1.664.796 1.664 1.779zM152.379 11.834c0 .982-.745 1.779-1.664 1.779s-1.664-.796-1.664-1.779c0-.982.745-1.779 1.664-1.779s1.664.796 1.664 1.779zM156.262 9.462c0 .982-.745 1.779-1.664 1.779s-1.664-.796-1.664-1.779c0-.982.745-1.779 1.664-1.779s1.664.796 1.664 1.779zM127.14 8.276c0 .982-.745 1.779-1.664 1.779s-1.664-.796-1.664-1.779c0-.982.745-1.779 1.664-1.779s1.664.796 1.664 1.779zM130.746 5.905c0 .982-.745 1.779-1.664 1.779s-1.664-.796-1.664-1.779c0-.982.745-1.779 1.664-1.779s1.664.796 1.664 1.779zM134.906 3.238c0 .982-.745 1.779-1.664 1.779s-1.664-.796-1.664-1.779c0-.982.745-1.779 1.664-1.779s1.664.796 1.664 1.779z"/><path d="M132.964 10.054c.919 0 1.665-.796 1.665-1.778s-.746-1.779-1.665-1.779-1.664.796-1.664 1.779c0 .982.745 1.778 1.664 1.778zM56.441 21.475c.141.985-.491 1.907-1.413 2.058s-1.784-.525-1.925-1.511c-.141-.985.491-1.907 1.413-2.058s1.784.525 1.925 1.511zM59.717 18.504c.141.985-.491 1.907-1.413 2.058s-1.784-.525-1.925-1.511c-.141-.985.491-1.907 1.413-2.058s1.784.525 1.925 1.511zM63.506 15.144c.141.985-.491 1.906-1.413 2.058s-1.784-.525-1.925-1.511c-.141-.985.491-1.906 1.413-2.058s1.784.525 1.925 1.511zM67.06 12.128c.141.985-.491 1.906-1.413 2.058s-1.784-.525-1.925-1.511c-.141-.985.491-1.906 1.413-2.058s1.784.525 1.925 1.511zM3.482 21.473c0 .997-.779 1.805-1.741 1.805S0 22.47 0 21.473c0-.997.779-1.805 1.741-1.805s1.741.808 1.741 1.805zM7.252 19.067c0 .997-.779 1.805-1.741 1.805s-1.741-.808-1.741-1.805c0-.997.779-1.805 1.741-1.805s1.741.808 1.741 1.805zM11.605 16.36c0 .997-.779 1.805-1.741 1.805s-1.741-.808-1.741-1.805c0-.997.779-1.805 1.741-1.805s1.741.808 1.741 1.805zM15.666 13.953c0 .997-.779 1.805-1.741 1.805s-1.741-.808-1.741-1.805c0-.997.779-1.805 1.741-1.805s1.741.808 1.741 1.805zM5.222 25.984c0 .997-.779 1.805-1.741 1.805s-1.741-.808-1.741-1.805c0-.997.779-1.805 1.741-1.805s1.741.808 1.741 1.805zM8.994 23.578c0 .997-.779 1.805-1.741 1.805s-1.741-.808-1.741-1.805c0-.997.779-1.805 1.741-1.805s1.741.808 1.741 1.805zM13.347 20.871c0 .997-.779 1.805-1.741 1.805s-1.741-.808-1.741-1.805c0-.997.779-1.805 1.741-1.805s1.741.808 1.741 1.805zM17.407 18.465c0 .997-.779 1.805-1.741 1.805s-1.741-.808-1.741-1.805c0-.997.779-1.805 1.741-1.805s1.741.808 1.741 1.805zM9.573 28.39c0 .997-.779 1.805-1.741 1.805s-1.741-.808-1.741-1.805c0-.997.779-1.805 1.741-1.805s1.741.808 1.741 1.805zM13.345 25.984c0 .997-.779 1.805-1.741 1.805s-1.741-.808-1.741-1.805c0-.997.779-1.805 1.741-1.805s1.741.808 1.741 1.805zM17.697 23.277c0 .997-.779 1.805-1.741 1.805s-1.741-.808-1.741-1.805c0-.997.779-1.805 1.741-1.805s1.741.808 1.741 1.805zM21.757 20.871c0 .997-.779 1.805-1.741 1.805s-1.741-.808-1.741-1.805c0-.997.779-1.805 1.741-1.805s1.741.808 1.741 1.805zM14.504 29.895c0 .997-.779 1.805-1.741 1.805s-1.741-.808-1.741-1.805c0-.997.779-1.805 1.741-1.805s1.741.808 1.741 1.805zM18.276 27.488c0 .997-.779 1.805-1.741 1.805s-1.741-.808-1.741-1.805c0-.997.779-1.805 1.741-1.805s1.741.808 1.741 1.805zM22.629 24.781c0 .997-.779 1.805-1.741 1.805s-1.741-.808-1.741-1.805c0-.997.779-1.805 1.741-1.805s1.741.808 1.741 1.805zM26.689 22.375c0 .997-.779 1.805-1.741 1.805s-1.741-.808-1.741-1.805c0-.997.779-1.805 1.741-1.805s1.741.808 1.741 1.805z"/><path d="M20.888 30.196c0 .997-.779 1.805-1.741 1.805s-1.741-.808-1.741-1.805c0-.997.779-1.805 1.741-1.805s1.741.808 1.741 1.805zM24.659 27.789c0 .997-.779 1.805-1.741 1.805s-1.741-.808-1.741-1.805c0-.997.779-1.805 1.741-1.805s1.741.808 1.741 1.805zM29.011 25.082c0 .997-.779 1.805-1.741 1.805s-1.741-.808-1.741-1.805c0-.997.779-1.805 1.741-1.805s1.741.808 1.741 1.805zM33.072 22.676c0 .997-.779 1.805-1.741 1.805s-1.741-.808-1.741-1.805c0-.997.779-1.805 1.741-1.805s1.741.808 1.741 1.805zM28.431 30.195c0 .997-.779 1.805-1.741 1.805s-1.741-.808-1.741-1.805c0-.997.779-1.805 1.741-1.805s1.741.808 1.741 1.805zM32.202 27.789c0 .997-.779 1.805-1.741 1.805s-1.741-.808-1.741-1.805c0-.997.779-1.805 1.741-1.805s1.741.808 1.741 1.805zM36.554 25.082c0 .997-.779 1.805-1.741 1.805s-1.741-.808-1.741-1.805c0-.997.779-1.805 1.741-1.805s1.741.808 1.741 1.805zM40.616 22.676c0 .997-.779 1.805-1.741 1.805s-1.741-.808-1.741-1.805c0-.997.779-1.805 1.741-1.805s1.741.808 1.741 1.805z"/><path d="M34.812 29.894c0 .997-.779 1.805-1.741 1.805s-1.741-.808-1.741-1.805c0-.997.779-1.805 1.741-1.805s1.741.808 1.741 1.805zM38.583 27.488c0 .997-.779 1.805-1.741 1.805s-1.741-.808-1.741-1.805c0-.997.779-1.805 1.741-1.805s1.741.808 1.741 1.805zM42.936 24.781c0 .997-.779 1.805-1.741 1.805s-1.741-.808-1.741-1.805c0-.997.779-1.805 1.741-1.805s1.741.808 1.741 1.805zM46.996 22.375c0 .997-.779 1.805-1.741 1.805s-1.741-.808-1.741-1.805c0-.997.779-1.805 1.741-1.805s1.741.808 1.741 1.805zM42.065 29.594c0 .997-.779 1.805-1.741 1.805s-1.741-.808-1.741-1.805c0-.997.779-1.805 1.741-1.805s1.741.808 1.741 1.805zM45.836 27.187c0 .997-.779 1.805-1.741 1.805s-1.741-.808-1.741-1.805c0-.997.779-1.805 1.741-1.805s1.741.808 1.741 1.805zM50.188 24.481c0 .997-.779 1.805-1.741 1.805s-1.741-.808-1.741-1.805c0-.997.779-1.805 1.741-1.805s1.741.808 1.741 1.805zM54.249 22.074c0 .997-.779 1.805-1.741 1.805s-1.741-.808-1.741-1.805c0-.997.779-1.805 1.741-1.805s1.741.808 1.741 1.805z"/><path d="M48.737 21.773c0 .997-.779 1.805-1.741 1.805s-1.741-.808-1.741-1.805c0-.997.779-1.805 1.741-1.805s1.741.808 1.741 1.805zM52.508 19.367c0 .997-.779 1.805-1.741 1.805s-1.741-.808-1.741-1.805c0-.997.779-1.805 1.741-1.805s1.741.808 1.741 1.805zM56.86 16.66c0 .997-.779 1.805-1.741 1.805s-1.741-.808-1.741-1.805c0-.997.779-1.805 1.741-1.805s1.741.808 1.741 1.805zM60.922 14.254c0 .997-.779 1.805-1.741 1.805s-1.741-.808-1.741-1.805c0-.997.779-1.805 1.741-1.805s1.741.808 1.741 1.805z"/></symbol><symbol id="icon-dots-desktop" viewBox="0 0 100 32"><path d="M45.81 25.797c0 .287-.219.52-.488.52s-.488-.233-.488-.52c0-.287.219-.52.488-.52s.488.233.488.52zM46.949 25.104c0 .287-.219.52-.488.52s-.488-.233-.488-.52c0-.287.219-.52.488-.52s.488.233.488.52zM44.915 27.705c0 .287-.219.52-.488.52s-.488-.233-.488-.52c0-.287.219-.52.488-.52s.488.233.488.52zM45.972 27.011c0 .287-.219.52-.488.52s-.488-.233-.488-.52c0-.287.219-.52.488-.52s.488.233.488.52zM47.193 26.231c0 .287-.219.52-.488.52s-.488-.233-.488-.52c0-.287.219-.52.488-.52s.488.233.488.52zM48.332 25.537c0 .287-.219.52-.488.52s-.488-.233-.488-.52c0-.287.219-.52.488-.52s.488.233.488.52z"/><path d="M46.705 27.792c0 .287-.219.52-.488.52s-.488-.233-.488-.52c0-.287.219-.52.488-.52s.488.233.488.52zM47.762 27.098c0 .287-.219.52-.488.52s-.488-.233-.488-.52c0-.287.219-.52.488-.52s.488.233.488.52zM48.983 26.318c0 .287-.219.52-.488.52s-.488-.233-.488-.52c0-.287.219-.52.488-.52s.488.233.488.52zM50.122 25.624c0 .287-.219.52-.488.52s-.488-.233-.488-.52c0-.287.219-.52.488-.52s.488.233.488.52zM48.82 27.792c0 .287-.219.52-.488.52s-.488-.233-.488-.52c0-.287.219-.52.488-.52s.488.233.488.52zM49.878 27.098c0 .287-.219.52-.488.52s-.488-.233-.488-.52c0-.287.219-.52.488-.52s.488.233.488.52zM51.098 26.318c0 .287-.219.52-.488.52s-.488-.233-.488-.52c0-.287.219-.52.488-.52s.488.233.488.52zM52.238 25.624c0 .287-.219.52-.488.52s-.488-.233-.488-.52c0-.287.219-.52.488-.52s.488.233.488.52z"/><path d="M50.61 27.705c0 .287-.219.52-.488.52s-.488-.233-.488-.52c0-.287.219-.52.488-.52s.488.233.488.52zM51.668 27.011c0 .287-.219.52-.488.52s-.488-.233-.488-.52c0-.287.219-.52.488-.52s.488.233.488.52zM52.889 26.231c0 .287-.219.52-.488.52s-.488-.233-.488-.52c0-.287.219-.52.488-.52s.488.233.488.52zM54.028 25.537c0 .287-.219.52-.488.52s-.488-.233-.488-.52c0-.287.219-.52.488-.52s.488.233.488.52zM52.644 27.618c0 .287-.219.52-.488.52s-.488-.233-.488-.52c0-.287.219-.52.488-.52s.488.233.488.52zM53.702 26.925c0 .287-.219.52-.488.52s-.488-.233-.488-.52c0-.287.219-.52.488-.52s.488.233.488.52zM54.923 26.144c0 .287-.219.52-.488.52s-.488-.233-.488-.52c0-.287.219-.52.488-.52s.488.233.488.52zM56.062 25.45c0 .287-.219.52-.488.52s-.488-.233-.488-.52c0-.287.219-.52.488-.52s.488.233.488.52z"/><path d="M54.516 25.364c0 .287-.219.52-.488.52s-.488-.233-.488-.52c0-.287.219-.52.488-.52s.488.233.488.52zM55.574 24.67c0 .287-.219.52-.488.52s-.488-.233-.488-.52c0-.287.219-.52.488-.52s.488.233.488.52zM56.794 23.889c0 .287-.219.52-.488.52s-.488-.233-.488-.52c0-.287.219-.52.488-.52s.488.233.488.52zM57.933 23.196c0 .287-.219.52-.488.52s-.488-.233-.488-.52c0-.287.219-.52.488-.52s.488.233.488.52z"/></symbol><symbol id="icon-cow" viewBox="0 0 32 32"><path d="M6.169.192c-.262.226-1.008 1.781-1.276 2.631-.318 1.052-.427 1.842-.384 2.932.058 1.556.449 2.736 1.31 3.969.225.323.406.601.406.624 0 .015-.138.029-.311.029-.747 0-2.144.249-3.215.572-1.7.511-2.7 1.405-2.7 2.405 0 .354.318.955.659 1.262.659.595 2.1 1.158 3.649 1.428.536.098 2.129.263 2.484.271.065 0 .087.346.087 1.481 0 .977.036 1.736.108 2.202.26 1.668 1.071 3.436 2.142 4.683l.37.428-.246.399c-.362.564-.5.992-.542 1.631-.109 1.533.846 2.893 2.693 3.849 3.517 1.826 8.984 1.111 11.033-1.444.999-1.248 1.115-2.676.325-3.969l-.246-.398.442-.533c.826-.993 1.361-1.985 1.766-3.24.34-1.068.471-2.098.471-3.729 0-.744.021-1.36.058-1.36.333-.008 1.933-.18 2.44-.271 1.556-.27 2.969-.827 3.649-1.428.34-.308.659-.909.659-1.263 0-1.113-1.129-2.014-3.229-2.556-.687-.18-1.983-.398-2.613-.436l-.297-.023.326-.451c.405-.549.912-1.616 1.108-2.316.55-2.021.21-4.374-.97-6.622-.493-.932-.834-1.149-1.231-.782-.152.144-.218.339-.362 1.045-.449 2.248-1.282 4.029-2.498 5.345l-.536.587H10.245l-.478-.519C8.58 5.317 7.718 3.468 7.269 1.213 7.124.506 7.059.312 6.907.169c-.239-.218-.471-.211-.738.022zm.926 4.458c.384.842.862 1.631 1.426 2.36l.449.579-.47.354a4.73 4.73 0 0 0-1.173 1.368l-.137.248-.348-.474C5.654 7.446 5.358 5.44 5.988 3.357c.304-1.007.297-.999.572-.127.131.42.377 1.06.536 1.42zM25.94 3.064c.262.728.414 1.569.414 2.445l-.001.093v-.005c0 1.367-.362 2.524-1.122 3.563l-.34.466-.253-.428a4.538 4.538 0 0 0-1.254-1.382l-.013-.009c-.196-.127-.347-.255-.347-.27 0-.022.137-.196.311-.383.804-.895 1.665-2.503 2.092-3.886.13-.428.26-.782.282-.782s.131.263.231.58zm-3.699 5.494c.804.338 1.571 1.308 1.694 2.127.065.451.217.737.412.782.087.014.688.068 1.332.112 2.287.151 4.09.64 4.858 1.308.355.316.318.578-.108.901-.854.647-2.7 1.135-4.583 1.218-1.245.053-1.506.091-1.673.263-.123.128-.137.263-.137 1.624 0 1.842-.094 2.901-.326 3.758-.325 1.164-.97 2.405-1.723 3.284l-.311.361-.644-.383a7.832 7.832 0 0 0-2.335-.958l-.054-.011c-2.744-.655-5.778-.256-7.819 1.029l-.471.3-.297-.354c-.405-.473-1.043-1.488-1.296-2.06-.557-1.292-.724-2.345-.724-4.66 0-2.248.116-2.083-1.549-2.172-2.129-.113-3.751-.496-4.772-1.143-.753-.48-.629-.909.42-1.413 1.006-.488 2.388-.781 4.308-.901 1.492-.098 1.527-.12 1.665-.842.203-1.09 1.006-1.992 2.02-2.277.253-.076 1.672-.091 6.016-.083l5.684.015.412.172zm-4.069 15.559c1.774.436 3.099 1.248 3.671 2.255.138.233.196.474.224.842.029.459.008.572-.166.948-.804 1.707-3.757 2.834-6.762 2.578-3.612-.3-5.988-2.315-5.053-4.292.507-1.068 2.222-2.09 4.032-2.391.297-.044.594-.098.652-.112s.71-.015 1.449 0c1.005.022 1.491.068 1.954.172z"/><path d="M10.99 12.321c-.45.151-.754.347-1.159.752-.355.338-.383.736-.086.977.276.225.535.196.868-.098.42-.368.746-.518 1.151-.518.405-.008.716.135 1.151.518.333.293.594.323.868.098.145-.12.188-.218.188-.444 0-.232-.051-.338-.304-.593-.716-.721-1.781-.999-2.679-.692zm8.441-.008c-.462.173-1.057.564-1.295.857-.232.286-.24.609 0 .85.238.255.528.24.876-.045.854-.707 1.492-.729 2.281-.076.203.173.434.308.507.308.355 0 .644-.316.644-.692 0-.24-.601-.796-1.144-1.06-.601-.293-1.317-.346-1.868-.142zM12.04 26.224c-.21.203-.283.496-.174.729.08.187.203.263.702.398.225.06.319.135.398.323.101.249.109.249.667.271l.557.022v-.211c-.007-.3-.174-.736-.391-1.036-.253-.347-.695-.572-1.195-.617-.34-.03-.427-.015-.564.121zm6.914-.053c-.362.098-.884.587-1.028.969a2.533 2.533 0 0 0-.137.677v.008c-.015.323.014.398.188.556.427.376.992.083.992-.518 0-.293.217-.496.601-.571.405-.076.551-.241.557-.624 0-.504-.449-.699-1.173-.496z"/></symbol><symbol id="icon-arrow" viewBox="0 0 82 32"><path d="M81.414 17.414c.362-.362.586-.862.586-1.414s-.224-1.052-.586-1.414L68.686 1.858a2 2 0 1 0-2.829 2.827l.001.001L77.172 16 65.858 27.314a2 2 0 0 0 2.829 2.827l-.001.001 12.728-12.728zM0 18h80v-4H0v4z"/></symbol><symbol id="icon-arrow-btn" viewBox="0 0 32 32"><path d="M10.587 3.272c-.361.362-.585.861-.585 1.413s.223 1.051.585 1.413l9.899 9.901-9.899 9.899a2 2 0 0 0 2.828 2.825l-.001.001 11.315-11.312c.361-.362.585-.861.585-1.413s-.224-1.052-.585-1.413L13.414 3.271c-.362-.361-.861-.585-1.413-.585s-1.052.224-1.413.585z"/></symbol></defs></svg>