<svg aria-hidden="true" style="position: absolute; width: 0; height: 0; overflow: hidden;" version="1.1" xmlns="http://www.w3.org/2000/svg" xmlns:xlink="http://www.w3.org/1999/xlink">
<defs>
<symbol id="icon-weight" viewBox="0 0 32 32">
<path d="M14.178 0.547c-3.974 0.589-7.247 2.796-8.452 5.685-0.384 0.913-0.487 1.474-0.487 2.573 0.007 0.812 0.036 1.114 0.163 1.552 0.258 0.862 0.443 1.301 0.827 1.92l0.356 0.574-0.4 0.489c-3.154 3.924-3.501 9.444-0.871 13.793 0.982 1.632 2.586 3.235 4.151 4.169l0.466 0.273 12.743-0.108 0.302-0.165c1.057-0.596 2.548-1.926 3.383-3.004 1.208-1.569 2.064-3.472 2.413-5.546l0.010-0.074c0.118-0.74 0.118-2.933-0.007-3.63-0.377-2.148-1.182-3.988-2.452-5.62-0.244-0.309-0.436-0.568-0.436-0.589 0-0.014 0.133-0.237 0.288-0.489 0.354-0.564 0.649-1.216 0.85-1.907l0.014-0.055c0.199-0.719 0.199-2.516 0-3.235-0.709-2.551-2.836-4.679-5.843-5.851-0.843-0.331-2.284-0.683-3.214-0.797-0.864-0.1-2.999-0.080-3.804 0.043zM18.676 1.718c3.945 0.769 6.834 3.184 7.365 6.16 0.118 0.668 0.044 1.804-0.155 2.436-0.2 0.618-0.569 1.344-1.004 1.963-0.178 0.252-0.325 0.539-0.325 0.632s0.155 0.338 0.377 0.582c1.846 2.049 2.821 4.614 2.821 7.388-0.007 3.156-1.219 5.923-3.553 8.093-0.399 0.373-0.968 0.841-1.271 1.042l-0.554 0.373-12.211 0.051-0.473-0.302c-1.714-1.113-3.258-2.953-4.115-4.908-1.078-2.472-1.189-5.34-0.31-7.913 0.466-1.337 1.086-2.429 2.031-3.58 0.385-0.46 0.562-0.733 0.562-0.862 0-0.108-0.192-0.46-0.444-0.827-0.886-1.287-1.248-2.717-1.034-4.068 0.222-1.365 0.842-2.487 1.987-3.6 1.493-1.445 3.576-2.402 6.021-2.761 1.012-0.151 3.25-0.093 4.284 0.1z"></path>
<path d="M14.509 2.983c-3.029 0.496-5.4 2.178-6.176 4.385-0.178 0.496-0.206 0.69-0.206 1.401s0.029 0.907 0.206 1.402c0.111 0.316 0.318 0.756 0.459 0.978 0.384 0.618 0.554 0.64 1.315 0.18 1.094-0.674 2.368-1.19 3.727-1.474l0.078-0.014c0.916-0.187 2.674-0.258 3.671-0.143 1.558 0.18 3.251 0.74 4.602 1.538 0.385 0.222 0.776 0.409 0.872 0.409 0.562 0 1.278-1.617 1.278-2.875 0-2.796-2.675-5.189-6.464-5.786-0.805-0.129-2.586-0.129-3.361 0zM18.165 4.133c1.271 0.273 2.438 0.791 3.317 1.474 1.182 0.913 1.817 2.185 1.714 3.413-0.037 0.489-0.222 1.15-0.332 1.222-0.029 0.014-0.444-0.158-0.916-0.388-0.926-0.454-2.004-0.832-3.131-1.081l-0.097-0.018c-0.687-0.143-0.975-0.165-2.512-0.158-1.514 0-1.831 0.022-2.489 0.158-1.179 0.249-2.221 0.616-3.195 1.099l0.078-0.035c-1.101 0.524-1.042 0.532-1.242-0.116-0.258-0.84-0.096-1.955 0.407-2.796 0.266-0.445 0.996-1.186 1.529-1.552 1.012-0.698 1.899-1.013 3.804-1.359 0.391-0.071 2.563 0.029 3.065 0.137zM16.963 13.404c-0.207 0.26-0.207 0.504 0.007 0.712 0.14 0.137 0.281 0.172 0.791 0.209 1.034 0.075 1.983 0.38 2.815 0.865l-0.031-0.017c0.606 0.359 1.529 1.229 1.943 1.854 0.613 0.898 1.034 2.185 1.034 3.134 0 0.331 0.030 0.431 0.185 0.574 0.236 0.237 0.547 0.237 0.776 0 0.163-0.165 0.169-0.208 0.125-0.912-0.207-3.479-3.184-6.382-6.744-6.578l-0.74-0.043-0.162 0.202z"></path>
</symbol>
<symbol id="icon-telegram" viewBox="0 0 32 32">
<path d="M12.869 18.376l-0.318 4.169c0.455 0 0.651-0.183 0.888-0.401l2.131-1.901 4.414 3.018c0.809 0.421 1.38 0.199 1.598-0.696l2.899-12.673c0.257-1.117-0.433-1.554-1.222-1.28l-17.032 6.086c-1.162 0.422-1.144 1.026-0.198 1.301l4.355 1.264 10.115-5.907c0.475-0.295 0.908-0.132 0.552 0.163l-8.182 6.856z"></path>
</symbol>
<symbol id="icon-modal-close" viewBox="0 0 32 32">
<path d="M17.253 16l7.37-7.37c0.13-0.154 0.209-0.354 0.209-0.573 0-0.491-0.398-0.89-0.89-0.89-0.219 0-0.42 0.079-0.575 0.211l0.001-0.001-7.368 7.37-7.37-7.378c-0.159-0.147-0.372-0.237-0.606-0.237-0.493 0-0.893 0.4-0.893 0.893 0 0.234 0.090 0.447 0.237 0.606l-0.001-0.001 7.378 7.37-7.376 7.368c-0.194 0.164-0.316 0.408-0.316 0.68 0 0.491 0.398 0.89 0.89 0.89 0.272 0 0.515-0.122 0.678-0.314l0.001-0.001 7.376-7.37 7.37 7.37c0.155 0.133 0.357 0.214 0.579 0.214 0.491 0 0.89-0.398 0.89-0.89 0-0.222-0.081-0.424-0.215-0.58l0.001 0.001-7.37-7.368z"></path>
</symbol>
<symbol id="icon-mobil-menu" viewBox="0 0 32 32">
<path d="M26.733 14h-21.466c-0.7 0-1.267 0.425-1.267 0.95v0.1c0 0.525 0.567 0.95 1.267 0.95h21.466c0.7 0 1.267-0.425 1.267-0.95v-0.1c0-0.525-0.567-0.95-1.267-0.95zM26.733 20h-21.466c-0.7 0-1.267 0.425-1.267 0.95v0.1c0 0.525 0.567 0.95 1.267 0.95h21.466c0.7 0 1.267-0.425 1.267-0.95v-0.1c0-0.525-0.567-0.95-1.267-0.95zM26.733 8h-21.466c-0.7 0-1.267 0.425-1.267 0.95v0.1c0 0.525 0.567 0.95 1.267 0.95h21.466c0.7 0 1.267-0.425 1.267-0.95v-0.1c0-0.525-0.567-0.95-1.267-0.95z"></path>
</symbol>
<symbol id="icon-icon-menu-close" viewBox="0 0 32 32">
<path d="M23.884 6.706l-7.884 7.884-7.884-7.884c-0.177-0.162-0.414-0.262-0.674-0.262-0.551 0-0.998 0.447-0.998 0.998 0 0.26 0.099 0.497 0.262 0.674l-0.001-0.001 7.88 7.884-7.882 7.882c-0.181 0.181-0.293 0.43-0.293 0.706 0 0.551 0.447 0.998 0.998 0.998 0.275 0 0.524-0.111 0.705-0.292v0l7.886-7.882 7.884 7.884c0.177 0.162 0.414 0.262 0.674 0.262 0.551 0 0.998-0.447 0.998-0.998 0-0.26-0.099-0.497-0.262-0.674l0.001 0.001-7.884-7.884 7.884-7.886c0.181-0.181 0.293-0.43 0.293-0.706 0-0.551-0.447-0.998-0.998-0.998-0.275 0-0.524 0.111-0.705 0.292v0 0.002z"></path>
</symbol>
<symbol id="icon-ice-crema" viewBox="0 0 32 32">
<path d="M16.108 0.107c0.080 0.215 0.241 1.252 0.241 1.573 0 0.003 0 0.007 0 0.011 0 0.818-0.318 1.561-0.838 2.114l0.001-0.002c-0.449 0.482-0.898 0.749-1.975 1.185-1.198 0.489-1.694 0.783-2.256 1.339-0.569 0.569-0.904 1.191-1.024 1.922-0.134 0.796 0 1.358 0.408 1.68l0.207 0.16-0.328 0.208c-0.662 0.436-1.867 1.46-2.075 1.774-0.402 0.603-0.362 1.164 0.093 1.393l0.214 0.107-0.241 0.228c-0.362 0.341-0.436 0.576-0.382 1.191 0.034 0.409 0.020 0.63-0.073 0.964-0.114 0.436-0.114 0.442 0.033 0.75 0.148 0.301 0.563 0.683 0.938 0.844 0.18 0.080 0.187 0.107 0.228 0.723 0.020 0.356 0.053 1.486 0.080 2.517 0.020 1.031 0.068 1.975 0.107 2.089 0.034 0.12 0.161 0.281 0.276 0.361 0.388 0.268 0.656 0.556 0.829 0.891 0.195 0.382 0.409 1.319 1.058 4.559l0.455 2.276 0.282 0.268c0.535 0.529 1.56 0.77 3.247 0.77 1.693 0 2.704-0.235 3.24-0.764l0.288-0.274 0.414-2.109c0.916-4.612 0.997-4.867 1.714-5.436 0.22-0.181 0.436-0.402 0.475-0.502 0.047-0.114 0.094-0.991 0.127-2.316 0.027-1.178 0.068-2.343 0.094-2.591l0.040-0.448 0.436-0.329c0.548-0.421 0.763-0.803 0.763-1.392-0.006-0.696-0.462-1.46-1.292-2.142l-0.396-0.321 0.195-0.276c0.81-1.117 0.301-2.664-1.205-3.694l-0.455-0.315 0.167-0.174c0.743-0.796 0.864-3.173 0.241-4.827-0.374-0.984-1.232-2.055-2.283-2.845-0.514-0.388-1.934-1.245-2.060-1.245-0.027 0-0.027 0.047-0.006 0.107zM18.036 2.444c0.356 0.348 0.783 0.823 0.951 1.064 0.997 1.393 1.252 3.14 0.649 4.426-0.241 0.522-0.964 1.298-1.634 1.76-1.024 0.71-3.327 1.902-4.933 2.557-2.584 1.052-4.084 1.252-4.258 0.563-0.068-0.261 0.127-0.468 0.951-1.018 0.742-0.508 4.076-2.986 4.136-3.086 0.020-0.027-0.321 0.127-0.749 0.341-1.452 0.737-2.142 0.596-2.108-0.428 0.020-0.743 0.556-1.587 1.298-2.068 0.188-0.12 0.771-0.388 1.307-0.603 1.76-0.709 2.296-1.071 2.892-1.961 0.356-0.529 0.743-1.507 0.77-1.922 0.007-0.147 0.034-0.261 0.053-0.261s0.322 0.288 0.676 0.636zM19.863 10.050c0.489 0.274 0.997 0.743 1.218 1.111 0.389 0.662 0.188 1.325-0.649 2.169-0.91 0.924-2.463 1.808-4.171 2.37-1.573 0.516-3.079 0.756-5.236 0.83l-1.339 0.047 0.871 0.053c1.124 0.074 3.3 0.007 4.143-0.127 2.243-0.356 4.151-1.065 5.516-2.042 0.308-0.221 0.629-0.402 0.716-0.402 0.221 0 1.185 0.924 1.38 1.312 0.107 0.221 0.133 0.382 0.114 0.596-0.1 0.891-1.186 1.366-3.803 1.68-3.2 0.382-7.384 0.007-9.172-0.816-0.844-0.388-0.984-0.61-0.77-1.198 0.067-0.188 0.080-0.409 0.053-0.724-0.034-0.415-0.027-0.468 0.12-0.622 0.335-0.362 0.898-0.569 2.96-1.092 0.723-0.187 1.707-0.482 2.175-0.656 1.138-0.415 3.274-1.493 4.264-2.156 0.931-0.616 1.065-0.643 1.607-0.334zM10.972 18.244c1.406 0.409 2.652 0.529 4.968 0.482 1.74-0.033 2.812-0.14 4.357-0.415 0.316-0.053 0.589-0.1 0.623-0.1 0.074 0 0.053 2.571-0.027 3.247-0.087 0.716-0.282 1.272-0.489 1.406-0.214 0.14-1.285 0.288-2.718 0.368-2.939 0.16-5.958 0-6.895-0.375-0.508-0.207-0.563-0.476-0.569-2.959 0-1.653 0.013-1.881 0.1-1.847 0.053 0.020 0.348 0.107 0.649 0.194zM12.559 23.934c0.482 0.060 1.004 0.12 1.164 0.14l0.289 0.034-0.255 0.281c-0.328 0.355-0.83 1.064-1.011 1.426-0.207 0.415-0.275 0.442-0.582 0.275l-0.261-0.148-0.147-0.91c-0.078-0.506-0.143-0.863-0.216-1.217l0.028 0.165c-0.060-0.173-0.121-0.173 0.99-0.046zM19.696 23.86c0 0.013-0.034 0.187-0.068 0.382-0.040 0.2-0.207 1.292-0.374 2.429-0.341 2.377-0.569 3.494-0.777 3.869-0.288 0.502-0.978 0.796-2.095 0.891-0.436 0.034-1.748-0.053-1.821-0.121-0.053-0.060 1.098-1.486 1.279-1.58 0.167-0.094 0.213-0.080 0.782 0.213 0.663 0.349 0.998 0.403 0.998 0.181s-0.174-0.436-0.603-0.729c-0.395-0.282-0.535-0.443-0.535-0.63 0-0.053 0.194-0.355 0.428-0.669s0.575-0.817 0.749-1.118l0.329-0.542 0.3 0.041c0.609 0.087 0.77 0.080 0.75-0.053-0.013-0.068-0.127-0.261-0.255-0.422-0.127-0.167-0.228-0.335-0.228-0.368 0-0.127 0.622-1.299 0.824-1.547 0.174-0.214 0.315-0.322 0.315-0.228zM15.512 24.396c0.334 0.221 1.593 1.313 1.673 1.446 0.034 0.060-1.258 2.082-1.513 2.37-0.027 0.034-0.167-0.033-0.308-0.14-0.312-0.235-0.692-0.499-1.080-0.752l-0.085-0.052-0.904-0.596 0.542-0.917c0.964-1.613 0.944-1.587 1.151-1.587 0.107 0 0.341 0.1 0.523 0.228zM18.049 24.636c-0.235 0.288-0.428 0.469-0.508 0.469-0.174 0-0.456-0.154-0.931-0.502l-0.396-0.288 0.791-0.047c0.348-0.013 0.665-0.034 0.98-0.065l-0.064 0.005c0.536-0.087 0.536-0.080 0.128 0.428zM12.988 27.857c0.616 0.241 1.66 0.81 1.962 1.065 0.214 0.173 0.214 0.187 0.127 0.401-0.141 0.281-0.279 0.516-0.43 0.741l0.015-0.024c-0.128 0.191-0.277 0.434-0.417 0.682l-0.032 0.061c-0.213 0.415-0.281 0.449-0.723 0.329-0.476-0.141-0.729-0.382-0.863-0.818-0.181-0.609-0.469-2.329-0.436-2.597 0.013-0.1 0.294-0.040 0.796 0.161z"></path>
</symbol>
<symbol id="icon-github" viewBox="0 0 32 32">
<path d="M16 6.588c-5.17 0-9.412 4.242-9.412 9.412 0 4.411 3.096 8.419 7.206 9.412v-3.113c-0.408 0.088-0.781 0.091-1.196-0.031-0.556-0.164-1.008-0.535-1.344-1.099-0.214-0.36-0.593-0.753-0.988-0.724l-0.097-1.098c0.856-0.073 1.594 0.521 2.033 1.258 0.196 0.328 0.421 0.52 0.709 0.605 0.278 0.083 0.577 0.043 0.925-0.080 0.088-0.697 0.408-0.958 0.649-1.327-2.452-0.365-3.429-1.666-3.816-2.692-0.514-1.364-0.238-3.066 0.67-4.143 0.018-0.021 0.050-0.075 0.038-0.113-0.417-1.259 0.090-2.3 0.109-2.41 0.481 0.141 0.559-0.143 2.089 0.786l0.264 0.159c0.111 0.066 0.075 0.028 0.186 0.019 0.59-0.166 1.269-0.266 1.97-0.276l0.006-0c0.668 0.008 1.336 0.104 2.002 0.284l0.086 0.009c-0.008-0.002 0.024-0.006 0.075-0.037 1.911-1.158 1.842-0.779 2.355-0.946 0.019 0.111 0.519 1.169 0.106 2.411-0.056 0.171 1.656 1.739 0.708 4.256-0.388 1.026-1.365 2.328-3.816 2.693 0.314 0.48 0.692 0.734 0.69 1.722v3.886c4.109-0.993 7.206-5 7.206-9.412 0-5.17-4.242-9.412-9.412-9.412z"></path>
</symbol>
<symbol id="icon-facebook" viewBox="0 0 32 32">
<path d="M20.446 15.981h-2.611v9.619h-3.955v-9.619h-1.88v-3.379h1.88v-2.187c0-1.564 0.739-4.014 3.991-4.014l2.929 0.012v3.281h-2.125c-0.348 0-0.839 0.176-0.839 0.922v1.989h2.955l-0.345 3.377z"></path>
</symbol>
<symbol id="icon-dots-tablet" viewBox="0 0 356 32">
<path d="M306.022 29.57c0 1.021-0.832 1.849-1.857 1.849s-1.857-0.828-1.857-1.849c0-1.021 0.832-1.849 1.857-1.849s1.857 0.828 1.857 1.849z"></path>
<path d="M309.737 27.258c0 1.021-0.832 1.849-1.857 1.849s-1.857-0.828-1.857-1.849c0-1.021 0.832-1.849 1.857-1.849s1.857 0.828 1.857 1.849z"></path>
<path d="M314.38 24.485c0 1.021-0.832 1.849-1.857 1.849s-1.857-0.828-1.857-1.849c0-1.021 0.832-1.849 1.857-1.849s1.857 0.828 1.857 1.849z"></path>
<path d="M318.095 22.173c0 1.021-0.832 1.849-1.857 1.849s-1.857-0.828-1.857-1.849c0-1.021 0.832-1.849 1.857-1.849s1.857 0.828 1.857 1.849z"></path>
<path d="M315.773 28.646c0 1.021-0.832 1.849-1.857 1.849s-1.857-0.828-1.857-1.849c0-1.021 0.832-1.849 1.857-1.849s1.857 0.828 1.857 1.849z"></path>
<path d="M319.488 26.334c0 1.021-0.832 1.849-1.857 1.849s-1.857-0.828-1.857-1.849c0-1.021 0.832-1.849 1.857-1.849s1.857 0.828 1.857 1.849z"></path>
<path d="M324.132 23.56c0 1.021-0.832 1.849-1.857 1.849s-1.857-0.828-1.857-1.849c0-1.021 0.832-1.849 1.857-1.849s1.857 0.828 1.857 1.849z"></path>
<path d="M327.847 21.248c0 1.021-0.832 1.849-1.857 1.849s-1.857-0.828-1.857-1.849c0-1.021 0.832-1.849 1.857-1.849s1.857 0.828 1.857 1.849z"></path>
<path d="M324.132 27.721c0 1.021-0.832 1.849-1.857 1.849s-1.857-0.828-1.857-1.849c0-1.021 0.832-1.849 1.857-1.849s1.857 0.828 1.857 1.849z"></path>
<path d="M327.847 25.409c0 1.021-0.832 1.849-1.857 1.849s-1.857-0.828-1.857-1.849c0-1.021 0.832-1.849 1.857-1.849s1.857 0.828 1.857 1.849z"></path>
<path d="M332.491 22.635c0 1.021-0.832 1.849-1.857 1.849s-1.857-0.828-1.857-1.849c0-1.021 0.832-1.849 1.857-1.849s1.857 0.828 1.857 1.849z"></path>
<path d="M336.206 20.323c0 1.021-0.832 1.849-1.857 1.849s-1.857-0.828-1.857-1.849c0-1.021 0.832-1.849 1.857-1.849s1.857 0.828 1.857 1.849z"></path>
<path d="M332.491 26.334c0 1.021-0.832 1.849-1.857 1.849s-1.857-0.828-1.857-1.849c0-1.021 0.832-1.849 1.857-1.849s1.857 0.828 1.857 1.849z"></path>
<path d="M336.206 24.022c0 1.021-0.832 1.849-1.857 1.849s-1.857-0.828-1.857-1.849c0-1.021 0.832-1.849 1.857-1.849s1.857 0.828 1.857 1.849z"></path>
<path d="M340.85 21.248c0 1.021-0.832 1.849-1.857 1.849s-1.857-0.828-1.857-1.849c0-1.021 0.832-1.849 1.857-1.849s1.857 0.828 1.857 1.849z"></path>
<path d="M344.564 18.936c0 1.021-0.832 1.849-1.857 1.849s-1.857-0.828-1.857-1.849c0-1.021 0.832-1.849 1.857-1.849s1.857 0.828 1.857 1.849z"></path>
<path d="M334.813 29.57c0 1.021-0.832 1.849-1.857 1.849s-1.857-0.828-1.857-1.849c0-1.021 0.832-1.849 1.857-1.849s1.857 0.828 1.857 1.849z"></path>
<path d="M338.528 27.258c0 1.021-0.832 1.849-1.857 1.849s-1.857-0.828-1.857-1.849c0-1.021 0.832-1.849 1.857-1.849s1.857 0.828 1.857 1.849z"></path>
<path d="M343.636 30.033c0 1.021-0.832 1.849-1.857 1.849s-1.857-0.828-1.857-1.849c0-1.021 0.832-1.849 1.857-1.849s1.857 0.828 1.857 1.849z"></path>
<path d="M343.171 24.485c0 1.021-0.832 1.849-1.857 1.849s-1.857-0.828-1.857-1.849c0-1.021 0.832-1.849 1.857-1.849s1.857 0.828 1.857 1.849z"></path>
<path d="M348.279 27.258c0 1.021-0.832 1.849-1.857 1.849s-1.857-0.828-1.857-1.849c0-1.021 0.832-1.849 1.857-1.849s1.857 0.828 1.857 1.849z"></path>
<path d="M352.459 30.033c0 1.021-0.832 1.849-1.857 1.849s-1.857-0.828-1.857-1.849c0-1.021 0.832-1.849 1.857-1.849s1.857 0.828 1.857 1.849z"></path>
<path d="M346.887 22.173c0 1.021-0.832 1.849-1.857 1.849s-1.857-0.828-1.857-1.849c0-1.021 0.832-1.849 1.857-1.849s1.857 0.828 1.857 1.849z"></path>
<path d="M352.459 24.947c0 1.021-0.832 1.849-1.857 1.849s-1.857-0.828-1.857-1.849c0-1.021 0.832-1.849 1.857-1.849s1.857 0.828 1.857 1.849z"></path>
<path d="M356.174 27.721c0 1.021-0.832 1.849-1.857 1.849s-1.857-0.828-1.857-1.849c0-1.021 0.832-1.849 1.857-1.849s1.857 0.828 1.857 1.849z"></path>
<path d="M288.376 10.151c0 1.021-0.832 1.849-1.857 1.849s-1.857-0.828-1.857-1.849c0-1.021 0.832-1.849 1.857-1.849s1.857 0.828 1.857 1.849z"></path>
<path d="M292.090 7.839c0 1.021-0.832 1.849-1.857 1.849s-1.857-0.828-1.857-1.849c0-1.021 0.832-1.849 1.857-1.849s1.857 0.828 1.857 1.849z"></path>
<path d="M296.734 5.065c0 1.021-0.832 1.849-1.857 1.849s-1.857-0.828-1.857-1.849c0-1.021 0.832-1.849 1.857-1.849s1.857 0.828 1.857 1.849z"></path>
<path d="M300.449 2.753c0 1.021-0.832 1.85-1.857 1.85s-1.857-0.828-1.857-1.849c0-1.021 0.832-1.849 1.857-1.849s1.857 0.828 1.857 1.849z"></path>
<path d="M280.946 9.689c0 1.021-0.832 1.85-1.857 1.85s-1.857-0.828-1.857-1.849c0-1.021 0.832-1.849 1.857-1.849s1.857 0.828 1.857 1.849z"></path>
<path d="M284.66 7.377c0 1.021-0.832 1.849-1.857 1.849s-1.857-0.828-1.857-1.849c0-1.021 0.832-1.849 1.857-1.849s1.857 0.828 1.857 1.849z"></path>
<path d="M289.304 4.602c0 1.021-0.832 1.849-1.857 1.849s-1.857-0.828-1.857-1.849c0-1.021 0.832-1.849 1.857-1.849s1.857 0.828 1.857 1.849z"></path>
<path d="M293.019 2.291c0 1.021-0.832 1.849-1.857 1.849s-1.857-0.828-1.857-1.849c0-1.021 0.832-1.849 1.857-1.849s1.857 0.828 1.857 1.849z"></path>
<path d="M297.198 29.57c0 1.021-0.832 1.849-1.857 1.849s-1.857-0.828-1.857-1.849c0-1.021 0.832-1.849 1.857-1.849s1.857 0.828 1.857 1.849z"></path>
<path d="M300.914 27.258c0 1.021-0.832 1.849-1.857 1.849s-1.857-0.828-1.857-1.849c0-1.021 0.832-1.849 1.857-1.849s1.857 0.828 1.857 1.849z"></path>
<path d="M305.557 24.485c0 1.021-0.832 1.849-1.857 1.849s-1.857-0.828-1.857-1.849c0-1.021 0.832-1.849 1.857-1.849s1.857 0.828 1.857 1.849z"></path>
<path d="M309.272 22.173c0 1.021-0.832 1.849-1.857 1.849s-1.857-0.828-1.857-1.849c0-1.021 0.832-1.849 1.857-1.849s1.857 0.828 1.857 1.849z"></path>
<path d="M292.555 28.183c0 1.021-0.832 1.849-1.857 1.849s-1.857-0.828-1.857-1.849c0-1.021 0.832-1.849 1.857-1.849s1.857 0.828 1.857 1.849z"></path>
<path d="M296.269 25.871c0 1.021-0.832 1.849-1.857 1.849s-1.857-0.828-1.857-1.849c0-1.021 0.832-1.849 1.857-1.849s1.857 0.828 1.857 1.849z"></path>
<path d="M300.914 23.098c0 1.021-0.832 1.849-1.857 1.849s-1.857-0.828-1.857-1.849c0-1.021 0.832-1.849 1.857-1.849s1.857 0.828 1.857 1.849z"></path>
<path d="M304.628 20.786c0 1.021-0.832 1.849-1.857 1.849s-1.857-0.828-1.857-1.849c0-1.021 0.832-1.849 1.857-1.849s1.857 0.828 1.857 1.849z"></path>
<path d="M294.413 21.71c0 1.021-0.832 1.849-1.857 1.849s-1.857-0.828-1.857-1.849c0-1.021 0.832-1.849 1.857-1.849s1.857 0.828 1.857 1.849z"></path>
<path d="M298.127 19.398c0 1.021-0.832 1.849-1.857 1.849s-1.857-0.828-1.857-1.849c0-1.021 0.832-1.849 1.857-1.849s1.857 0.828 1.857 1.849z"></path>
<path d="M302.771 16.624c0 1.021-0.832 1.849-1.857 1.849s-1.857-0.828-1.857-1.849c0-1.021 0.832-1.849 1.857-1.849s1.857 0.828 1.857 1.849z"></path>
<path d="M306.486 14.312c0 1.021-0.832 1.849-1.857 1.849s-1.857-0.828-1.857-1.849c0-1.021 0.832-1.849 1.857-1.849s1.857 0.828 1.857 1.849z"></path>
<path d="M294.413 11.076c0 1.021-0.832 1.849-1.857 1.849s-1.857-0.828-1.857-1.849c0-1.021 0.832-1.849 1.857-1.849s1.857 0.828 1.857 1.849z"></path>
<path d="M298.127 8.764c0 1.021-0.832 1.849-1.857 1.849s-1.857-0.828-1.857-1.849c0-1.021 0.832-1.849 1.857-1.849s1.857 0.828 1.857 1.849z"></path>
<path d="M302.771 5.99c0 1.021-0.832 1.849-1.857 1.849s-1.857-0.828-1.857-1.849c0-1.021 0.832-1.849 1.857-1.849s1.857 0.828 1.857 1.849z"></path>
<path d="M306.486 3.678c0 1.021-0.832 1.849-1.857 1.849s-1.857-0.828-1.857-1.849c0-1.021 0.832-1.849 1.857-1.849s1.857 0.828 1.857 1.849z"></path>
<path d="M293.484 17.087c0 1.021-0.832 1.849-1.857 1.849s-1.857-0.828-1.857-1.849c0-1.021 0.832-1.849 1.857-1.849s1.857 0.828 1.857 1.849z"></path>
<path d="M297.198 14.775c0 1.021-0.832 1.85-1.857 1.85s-1.857-0.828-1.857-1.849c0-1.021 0.832-1.849 1.857-1.849s1.857 0.828 1.857 1.849z"></path>
<path d="M301.842 12c0 1.021-0.832 1.849-1.857 1.849s-1.857-0.828-1.857-1.849c0-1.021 0.832-1.849 1.857-1.849s1.857 0.828 1.857 1.849z"></path>
<path d="M305.557 9.689c0 1.021-0.832 1.85-1.857 1.85s-1.857-0.828-1.857-1.849c0-1.021 0.832-1.849 1.857-1.849s1.857 0.828 1.857 1.849z"></path>
<path d="M274.909 8.301c0 1.021-0.728 1.85-1.625 1.85s-1.625-0.828-1.625-1.849c0-1.021 0.728-1.849 1.625-1.849s1.625 0.828 1.625 1.849z"></path>
<path d="M278.624 5.99c0 1.021-0.728 1.849-1.625 1.849s-1.625-0.828-1.625-1.849c0-1.021 0.728-1.849 1.625-1.849s1.625 0.828 1.625 1.849z"></path>
<path d="M283.268 3.215c0 1.021-0.728 1.85-1.625 1.85s-1.625-0.828-1.625-1.849c0-1.021 0.728-1.849 1.625-1.849s1.625 0.828 1.625 1.849z"></path>
<path d="M281.178 10.151c0.898 0 1.625-0.828 1.625-1.849s-0.728-1.849-1.625-1.849c-0.897 0-1.625 0.828-1.625 1.849s0.728 1.849 1.625 1.849z"></path>
<path d="M3.715 27.362c0 1.025-0.832 1.855-1.857 1.855s-1.857-0.831-1.857-1.855c0-1.025 0.832-1.855 1.857-1.855s1.857 0.831 1.857 1.855z"></path>
<path d="M7.43 25.043c0 1.025-0.832 1.855-1.857 1.855s-1.857-0.831-1.857-1.855c0-1.025 0.832-1.855 1.857-1.855s1.857 0.831 1.857 1.855z"></path>
<path d="M12.074 22.261c0 1.025-0.832 1.855-1.857 1.855s-1.857-0.831-1.857-1.855c0-1.025 0.832-1.855 1.857-1.855s1.857 0.831 1.857 1.855z"></path>
<path d="M15.789 19.942c0 1.025-0.832 1.855-1.857 1.855s-1.857-0.831-1.857-1.855c0-1.025 0.832-1.855 1.857-1.855s1.857 0.831 1.857 1.855z"></path>
<path d="M26.005 28.29c0 1.025-0.832 1.855-1.857 1.855s-1.857-0.831-1.857-1.855c0-1.025 0.832-1.855 1.857-1.855s1.857 0.831 1.857 1.855z"></path>
<path d="M29.72 25.971c0 1.025-0.832 1.855-1.857 1.855s-1.857-0.831-1.857-1.855c0-1.025 0.832-1.855 1.857-1.855s1.857 0.831 1.857 1.855z"></path>
<path d="M34.363 23.188c0 1.025-0.832 1.855-1.857 1.855s-1.857-0.831-1.857-1.855c0-1.025 0.832-1.855 1.857-1.855s1.857 0.831 1.857 1.855z"></path>
<path d="M38.079 20.87c0 1.025-0.832 1.855-1.857 1.855s-1.857-0.831-1.857-1.855c0-1.025 0.832-1.855 1.857-1.855s1.857 0.831 1.857 1.855z"></path>
<path d="M34.364 26.899c0 1.025-0.728 1.855-1.626 1.855s-1.625-0.831-1.625-1.855c0-1.025 0.728-1.855 1.625-1.855s1.626 0.831 1.626 1.855z"></path>
<path d="M38.079 24.58c0 1.025-0.728 1.855-1.626 1.855s-1.626-0.831-1.626-1.855c0-1.025 0.728-1.855 1.626-1.855s1.626 0.831 1.626 1.855z"></path>
<path d="M42.258 22.261c0 1.025-0.728 1.855-1.626 1.855s-1.626-0.831-1.626-1.855c0-1.025 0.728-1.855 1.626-1.855s1.626 0.831 1.626 1.855z"></path>
<path d="M46.438 19.942c0 1.025-0.728 1.855-1.626 1.855s-1.626-0.831-1.626-1.855c0-1.025 0.728-1.855 1.626-1.855s1.626 0.831 1.626 1.855z"></path>
<path d="M51.081 16.232c0 1.025-0.728 1.855-1.626 1.855s-1.626-0.831-1.626-1.855c0-1.025 0.728-1.855 1.626-1.855s1.626 0.831 1.626 1.855z"></path>
<path d="M41.33 18.087c0 1.025-0.728 1.855-1.626 1.855s-1.626-0.831-1.626-1.855c0-1.025 0.728-1.855 1.626-1.855s1.626 0.831 1.626 1.855z"></path>
<path d="M17.646 28.29c0 1.025-0.832 1.855-1.857 1.855s-1.857-0.831-1.857-1.855c0-1.025 0.832-1.855 1.857-1.855s1.857 0.831 1.857 1.855z"></path>
<path d="M21.361 25.971c0 1.025-0.832 1.855-1.857 1.855s-1.857-0.831-1.857-1.855c0-1.025 0.832-1.855 1.857-1.855s1.857 0.831 1.857 1.855z"></path>
<path d="M26.005 23.188c0 1.025-0.832 1.855-1.857 1.855s-1.857-0.831-1.857-1.855c0-1.025 0.832-1.855 1.857-1.855s1.857 0.831 1.857 1.855z"></path>
<path d="M29.72 20.87c0 1.025-0.832 1.855-1.857 1.855s-1.857-0.831-1.857-1.855c0-1.025 0.832-1.855 1.857-1.855s1.857 0.831 1.857 1.855z"></path>
<path d="M10.216 27.826c0 1.025-0.832 1.855-1.857 1.855s-1.857-0.831-1.857-1.855c0-1.025 0.832-1.855 1.857-1.855s1.857 0.831 1.857 1.855z"></path>
<path d="M13.931 25.507c0 1.025-0.832 1.855-1.857 1.855s-1.857-0.831-1.857-1.855c0-1.025 0.832-1.855 1.857-1.855s1.857 0.831 1.857 1.855z"></path>
<path d="M18.575 22.725c0 1.025-0.832 1.855-1.857 1.855s-1.857-0.831-1.857-1.855c0-1.025 0.832-1.855 1.857-1.855s1.857 0.831 1.857 1.855z"></path>
<path d="M22.29 20.406c0 1.025-0.832 1.855-1.857 1.855s-1.857-0.831-1.857-1.855c0-1.025 0.832-1.855 1.857-1.855s1.857 0.831 1.857 1.855z"></path>
</symbol>
<symbol id="icon-dots-mobile" viewBox="0 0 205 32">
<path d="M156.54 29.617c0 0.982-0.745 1.779-1.664 1.779s-1.664-0.796-1.664-1.779c0-0.982 0.745-1.779 1.664-1.779s1.664 0.796 1.664 1.779z"></path>
<path d="M160.146 27.245c0 0.982-0.745 1.779-1.664 1.779s-1.664-0.796-1.664-1.779c0-0.982 0.745-1.779 1.664-1.779s1.664 0.796 1.664 1.779z"></path>
<path d="M164.305 24.578c0 0.982-0.745 1.779-1.664 1.779s-1.664-0.796-1.664-1.779c0-0.982 0.745-1.779 1.664-1.779s1.664 0.796 1.664 1.779z"></path>
<path d="M168.189 22.207c0 0.982-0.745 1.779-1.664 1.779s-1.664-0.796-1.664-1.779c0-0.982 0.745-1.779 1.664-1.779s1.664 0.796 1.664 1.779z"></path>
<path d="M165.969 28.431c0 0.982-0.745 1.779-1.664 1.779s-1.664-0.796-1.664-1.779c0-0.982 0.745-1.779 1.664-1.779s1.664 0.796 1.664 1.779z"></path>
<path d="M169.575 26.060c0 0.982-0.745 1.779-1.664 1.779s-1.664-0.796-1.664-1.779c0-0.982 0.745-1.779 1.664-1.779s1.664 0.796 1.664 1.779z"></path>
<path d="M173.734 23.392c0 0.982-0.745 1.779-1.664 1.779s-1.664-0.796-1.664-1.779c0-0.982 0.745-1.779 1.664-1.779s1.664 0.796 1.664 1.779z"></path>
<path d="M177.619 21.021c0 0.982-0.745 1.779-1.664 1.779s-1.664-0.796-1.664-1.779c0-0.982 0.745-1.779 1.664-1.779s1.664 0.796 1.664 1.779z"></path>
<path d="M174.013 27.542c0 0.982-0.745 1.779-1.664 1.779s-1.664-0.796-1.664-1.779c0-0.982 0.745-1.779 1.664-1.779s1.664 0.796 1.664 1.779z"></path>
<path d="M177.619 25.171c0 0.982-0.745 1.779-1.664 1.779s-1.664-0.796-1.664-1.779c0-0.982 0.745-1.779 1.664-1.779s1.664 0.796 1.664 1.779z"></path>
<path d="M181.779 22.503c0 0.982-0.745 1.779-1.664 1.779s-1.664-0.796-1.664-1.779c0-0.982 0.745-1.779 1.664-1.779s1.664 0.796 1.664 1.779z"></path>
<path d="M185.661 20.132c0 0.982-0.745 1.779-1.664 1.779s-1.664-0.796-1.664-1.779c0-0.982 0.745-1.779 1.664-1.779s1.664 0.796 1.664 1.779z"></path>
<path d="M181.778 26.356c0 0.982-0.745 1.779-1.664 1.779s-1.664-0.796-1.664-1.779c0-0.982 0.745-1.779 1.664-1.779s1.664 0.796 1.664 1.779z"></path>
<path d="M185.383 23.985c0 0.982-0.745 1.779-1.664 1.779s-1.664-0.796-1.664-1.779c0-0.982 0.745-1.779 1.664-1.779s1.664 0.796 1.664 1.779z"></path>
<path d="M189.543 21.318c0 0.982-0.745 1.779-1.664 1.779s-1.664-0.796-1.664-1.779c0-0.982 0.745-1.779 1.664-1.779s1.664 0.796 1.664 1.779z"></path>
<path d="M193.427 18.947c0 0.982-0.745 1.779-1.664 1.779s-1.664-0.796-1.664-1.779c0-0.982 0.745-1.779 1.664-1.779s1.664 0.796 1.664 1.779z"></path>
<path d="M184.276 29.617c0 0.982-0.745 1.779-1.664 1.779s-1.664-0.796-1.664-1.779c0-0.982 0.745-1.779 1.664-1.779s1.664 0.796 1.664 1.779z"></path>
<path d="M187.882 27.245c0 0.982-0.745 1.779-1.664 1.779s-1.664-0.796-1.664-1.779c0-0.982 0.745-1.779 1.664-1.779s1.664 0.796 1.664 1.779z"></path>
<path d="M192.874 29.913c0 0.982-0.745 1.779-1.664 1.779s-1.664-0.796-1.664-1.779c0-0.982 0.745-1.779 1.664-1.779s1.664 0.796 1.664 1.779z"></path>
<path d="M192.042 24.578c0 0.982-0.745 1.779-1.664 1.779s-1.664-0.796-1.664-1.779c0-0.982 0.745-1.779 1.664-1.779s1.664 0.796 1.664 1.779z"></path>
<path d="M197.034 27.245c0 0.982-0.745 1.779-1.664 1.779s-1.664-0.796-1.664-1.779c0-0.982 0.745-1.779 1.664-1.779s1.664 0.796 1.664 1.779z"></path>
<path d="M200.918 29.913c0 0.982-0.745 1.779-1.664 1.779s-1.664-0.796-1.664-1.779c0-0.982 0.745-1.779 1.664-1.779s1.664 0.796 1.664 1.779z"></path>
<path d="M195.925 22.207c0 0.982-0.745 1.779-1.664 1.779s-1.664-0.796-1.664-1.779c0-0.982 0.745-1.779 1.664-1.779s1.664 0.796 1.664 1.779z"></path>
<path d="M200.918 24.874c0 0.982-0.745 1.779-1.664 1.779s-1.664-0.796-1.664-1.779c0-0.982 0.745-1.779 1.664-1.779s1.664 0.796 1.664 1.779z"></path>
<path d="M204.801 27.542c0 0.982-0.745 1.779-1.664 1.779s-1.664-0.796-1.664-1.779c0-0.982 0.745-1.779 1.664-1.779s1.664 0.796 1.664 1.779z"></path>
<path d="M139.622 10.055c0 0.982-0.745 1.779-1.664 1.779s-1.664-0.796-1.664-1.779c0-0.982 0.745-1.779 1.664-1.779s1.664 0.796 1.664 1.779z"></path>
<path d="M143.227 7.684c0 0.982-0.745 1.779-1.664 1.779s-1.664-0.796-1.664-1.779c0-0.982 0.745-1.779 1.664-1.779s1.664 0.796 1.664 1.779z"></path>
<path d="M147.388 5.016c0 0.982-0.745 1.779-1.664 1.779s-1.664-0.796-1.664-1.779c0-0.982 0.745-1.779 1.664-1.779s1.664 0.796 1.664 1.779z"></path>
<path d="M151.27 2.645c0 0.982-0.745 1.779-1.664 1.779s-1.664-0.796-1.664-1.779c0-0.982 0.745-1.779 1.664-1.779s1.664 0.796 1.664 1.779z"></path>
<path d="M132.687 9.758c0 0.982-0.745 1.779-1.664 1.779s-1.664-0.796-1.664-1.779c0-0.982 0.745-1.779 1.664-1.779s1.664 0.796 1.664 1.779z"></path>
<path d="M136.292 7.387c0 0.982-0.745 1.779-1.664 1.779s-1.664-0.796-1.664-1.779c0-0.982 0.745-1.779 1.664-1.779s1.664 0.796 1.664 1.779z"></path>
<path d="M140.452 4.72c0 0.982-0.745 1.779-1.664 1.779s-1.664-0.796-1.664-1.779c0-0.982 0.745-1.779 1.664-1.779s1.664 0.796 1.664 1.779z"></path>
<path d="M144.335 2.349c0 0.982-0.745 1.779-1.664 1.779s-1.664-0.796-1.664-1.779c0-0.982 0.745-1.779 1.664-1.779s1.664 0.796 1.664 1.779z"></path>
<path d="M148.219 29.617c0 0.982-0.745 1.779-1.664 1.779s-1.664-0.796-1.664-1.779c0-0.982 0.745-1.779 1.664-1.779s1.664 0.796 1.664 1.779z"></path>
<path d="M151.824 27.245c0 0.982-0.745 1.779-1.664 1.779s-1.664-0.796-1.664-1.779c0-0.982 0.745-1.779 1.664-1.779s1.664 0.796 1.664 1.779z"></path>
<path d="M155.984 24.578c0 0.982-0.745 1.779-1.664 1.779s-1.664-0.796-1.664-1.779c0-0.982 0.745-1.779 1.664-1.779s1.664 0.796 1.664 1.779z"></path>
<path d="M159.868 22.207c0 0.982-0.745 1.779-1.664 1.779s-1.664-0.796-1.664-1.779c0-0.982 0.745-1.779 1.664-1.779s1.664 0.796 1.664 1.779z"></path>
<path d="M143.781 27.839c0 0.982-0.745 1.779-1.664 1.779s-1.664-0.796-1.664-1.779c0-0.982 0.745-1.779 1.664-1.779s1.664 0.796 1.664 1.779z"></path>
<path d="M147.387 25.468c0 0.982-0.745 1.779-1.664 1.779s-1.664-0.796-1.664-1.779c0-0.982 0.745-1.779 1.664-1.779s1.664 0.796 1.664 1.779z"></path>
<path d="M151.547 22.799c0 0.982-0.745 1.779-1.664 1.779s-1.664-0.796-1.664-1.779c0-0.982 0.745-1.779 1.664-1.779s1.664 0.796 1.664 1.779z"></path>
<path d="M155.43 20.429c0 0.982-0.745 1.779-1.664 1.779s-1.664-0.796-1.664-1.779c0-0.982 0.745-1.779 1.664-1.779s1.664 0.796 1.664 1.779z"></path>
<path d="M145.446 21.614c0 0.982-0.745 1.779-1.664 1.779s-1.664-0.796-1.664-1.779c0-0.982 0.745-1.779 1.664-1.779s1.664 0.796 1.664 1.779z"></path>
<path d="M149.051 19.243c0 0.982-0.745 1.779-1.664 1.779s-1.664-0.796-1.664-1.779c0-0.982 0.745-1.779 1.664-1.779s1.664 0.796 1.664 1.779z"></path>
<path d="M153.212 16.575c0 0.982-0.745 1.779-1.664 1.779s-1.664-0.796-1.664-1.779c0-0.982 0.745-1.779 1.664-1.779s1.664 0.796 1.664 1.779z"></path>
<path d="M157.094 14.204c0 0.982-0.745 1.779-1.664 1.779s-1.664-0.796-1.664-1.779c0-0.982 0.745-1.779 1.664-1.779s1.664 0.796 1.664 1.779z"></path>
<path d="M145.446 11.24c0 0.982-0.745 1.779-1.664 1.779s-1.664-0.796-1.664-1.779c0-0.982 0.745-1.779 1.664-1.779s1.664 0.796 1.664 1.779z"></path>
<path d="M149.051 8.869c0 0.982-0.745 1.779-1.664 1.779s-1.664-0.796-1.664-1.779c0-0.982 0.745-1.779 1.664-1.779s1.664 0.796 1.664 1.779z"></path>
<path d="M153.212 6.202c0 0.982-0.745 1.779-1.664 1.779s-1.664-0.796-1.664-1.779c0-0.982 0.745-1.779 1.664-1.779s1.664 0.796 1.664 1.779z"></path>
<path d="M157.094 3.83c0 0.982-0.745 1.779-1.664 1.779s-1.664-0.796-1.664-1.779c0-0.982 0.745-1.779 1.664-1.779s1.664 0.796 1.664 1.779z"></path>
<path d="M144.613 16.872c0 0.982-0.745 1.779-1.664 1.779s-1.664-0.796-1.664-1.779c0-0.982 0.745-1.779 1.664-1.779s1.664 0.796 1.664 1.779z"></path>
<path d="M148.22 14.5c0 0.982-0.745 1.779-1.664 1.779s-1.664-0.796-1.664-1.779c0-0.982 0.745-1.779 1.664-1.779s1.664 0.796 1.664 1.779z"></path>
<path d="M152.379 11.834c0 0.982-0.745 1.779-1.664 1.779s-1.664-0.796-1.664-1.779c0-0.982 0.745-1.779 1.664-1.779s1.664 0.796 1.664 1.779z"></path>
<path d="M156.262 9.462c0 0.982-0.745 1.779-1.664 1.779s-1.664-0.796-1.664-1.779c0-0.982 0.745-1.779 1.664-1.779s1.664 0.796 1.664 1.779z"></path>
<path d="M127.14 8.276c0 0.982-0.745 1.779-1.664 1.779s-1.664-0.796-1.664-1.779c0-0.982 0.745-1.779 1.664-1.779s1.664 0.796 1.664 1.779z"></path>
<path d="M130.746 5.905c0 0.982-0.745 1.779-1.664 1.779s-1.664-0.796-1.664-1.779c0-0.982 0.745-1.779 1.664-1.779s1.664 0.796 1.664 1.779z"></path>
<path d="M134.906 3.238c0 0.982-0.745 1.779-1.664 1.779s-1.664-0.796-1.664-1.779c0-0.982 0.745-1.779 1.664-1.779s1.664 0.796 1.664 1.779z"></path>
<path d="M132.964 10.054c0.919 0 1.665-0.796 1.665-1.778s-0.746-1.779-1.665-1.779-1.664 0.796-1.664 1.779c0 0.982 0.745 1.778 1.664 1.778z"></path>
<path d="M56.441 21.475c0.141 0.985-0.491 1.907-1.413 2.058s-1.784-0.525-1.925-1.511c-0.141-0.985 0.491-1.907 1.413-2.058s1.784 0.525 1.925 1.511z"></path>
<path d="M59.717 18.504c0.141 0.985-0.491 1.907-1.413 2.058s-1.784-0.525-1.925-1.511c-0.141-0.985 0.491-1.907 1.413-2.058s1.784 0.525 1.925 1.511z"></path>
<path d="M63.506 15.144c0.141 0.985-0.491 1.906-1.413 2.058s-1.784-0.525-1.925-1.511c-0.141-0.985 0.491-1.906 1.413-2.058s1.784 0.525 1.925 1.511z"></path>
<path d="M67.060 12.128c0.141 0.985-0.491 1.906-1.413 2.058s-1.784-0.525-1.925-1.511c-0.141-0.985 0.491-1.906 1.413-2.058s1.784 0.525 1.925 1.511z"></path>
<path d="M3.482 21.473c0 0.997-0.779 1.805-1.741 1.805s-1.741-0.808-1.741-1.805c0-0.997 0.779-1.805 1.741-1.805s1.741 0.808 1.741 1.805z"></path>
<path d="M7.252 19.067c0 0.997-0.779 1.805-1.741 1.805s-1.741-0.808-1.741-1.805c0-0.997 0.779-1.805 1.741-1.805s1.741 0.808 1.741 1.805z"></path>
<path d="M11.605 16.36c0 0.997-0.779 1.805-1.741 1.805s-1.741-0.808-1.741-1.805c0-0.997 0.779-1.805 1.741-1.805s1.741 0.808 1.741 1.805z"></path>
<path d="M15.666 13.953c0 0.997-0.779 1.805-1.741 1.805s-1.741-0.808-1.741-1.805c0-0.997 0.779-1.805 1.741-1.805s1.741 0.808 1.741 1.805z"></path>
<path d="M5.222 25.984c0 0.997-0.779 1.805-1.741 1.805s-1.741-0.808-1.741-1.805c0-0.997 0.779-1.805 1.741-1.805s1.741 0.808 1.741 1.805z"></path>
<path d="M8.994 23.578c0 0.997-0.779 1.805-1.741 1.805s-1.741-0.808-1.741-1.805c0-0.997 0.779-1.805 1.741-1.805s1.741 0.808 1.741 1.805z"></path>
<path d="M13.347 20.871c0 0.997-0.779 1.805-1.741 1.805s-1.741-0.808-1.741-1.805c0-0.997 0.779-1.805 1.741-1.805s1.741 0.808 1.741 1.805z"></path>
<path d="M17.407 18.465c0 0.997-0.779 1.805-1.741 1.805s-1.741-0.808-1.741-1.805c0-0.997 0.779-1.805 1.741-1.805s1.741 0.808 1.741 1.805z"></path>
<path d="M9.573 28.39c0 0.997-0.779 1.805-1.741 1.805s-1.741-0.808-1.741-1.805c0-0.997 0.779-1.805 1.741-1.805s1.741 0.808 1.741 1.805z"></path>
<path d="M13.345 25.984c0 0.997-0.779 1.805-1.741 1.805s-1.741-0.808-1.741-1.805c0-0.997 0.779-1.805 1.741-1.805s1.741 0.808 1.741 1.805z"></path>
<path d="M17.697 23.277c0 0.997-0.779 1.805-1.741 1.805s-1.741-0.808-1.741-1.805c0-0.997 0.779-1.805 1.741-1.805s1.741 0.808 1.741 1.805z"></path>
<path d="M21.757 20.871c0 0.997-0.779 1.805-1.741 1.805s-1.741-0.808-1.741-1.805c0-0.997 0.779-1.805 1.741-1.805s1.741 0.808 1.741 1.805z"></path>
<path d="M14.504 29.895c0 0.997-0.779 1.805-1.741 1.805s-1.741-0.808-1.741-1.805c0-0.997 0.779-1.805 1.741-1.805s1.741 0.808 1.741 1.805z"></path>
<path d="M18.276 27.488c0 0.997-0.779 1.805-1.741 1.805s-1.741-0.808-1.741-1.805c0-0.997 0.779-1.805 1.741-1.805s1.741 0.808 1.741 1.805z"></path>
<path d="M22.629 24.781c0 0.997-0.779 1.805-1.741 1.805s-1.741-0.808-1.741-1.805c0-0.997 0.779-1.805 1.741-1.805s1.741 0.808 1.741 1.805z"></path>
<path d="M26.689 22.375c0 0.997-0.779 1.805-1.741 1.805s-1.741-0.808-1.741-1.805c0-0.997 0.779-1.805 1.741-1.805s1.741 0.808 1.741 1.805z"></path>
<path d="M20.888 30.196c0 0.997-0.779 1.805-1.741 1.805s-1.741-0.808-1.741-1.805c0-0.997 0.779-1.805 1.741-1.805s1.741 0.808 1.741 1.805z"></path>
<path d="M24.659 27.789c0 0.997-0.779 1.805-1.741 1.805s-1.741-0.808-1.741-1.805c0-0.997 0.779-1.805 1.741-1.805s1.741 0.808 1.741 1.805z"></path>
<path d="M29.011 25.082c0 0.997-0.779 1.805-1.741 1.805s-1.741-0.808-1.741-1.805c0-0.997 0.779-1.805 1.741-1.805s1.741 0.808 1.741 1.805z"></path>
<path d="M33.072 22.676c0 0.997-0.779 1.805-1.741 1.805s-1.741-0.808-1.741-1.805c0-0.997 0.779-1.805 1.741-1.805s1.741 0.808 1.741 1.805z"></path>
<path d="M28.431 30.195c0 0.997-0.779 1.805-1.741 1.805s-1.741-0.808-1.741-1.805c0-0.997 0.779-1.805 1.741-1.805s1.741 0.808 1.741 1.805z"></path>
<path d="M32.202 27.789c0 0.997-0.779 1.805-1.741 1.805s-1.741-0.808-1.741-1.805c0-0.997 0.779-1.805 1.741-1.805s1.741 0.808 1.741 1.805z"></path>
<path d="M36.554 25.082c0 0.997-0.779 1.805-1.741 1.805s-1.741-0.808-1.741-1.805c0-0.997 0.779-1.805 1.741-1.805s1.741 0.808 1.741 1.805z"></path>
<path d="M40.616 22.676c0 0.997-0.779 1.805-1.741 1.805s-1.741-0.808-1.741-1.805c0-0.997 0.779-1.805 1.741-1.805s1.741 0.808 1.741 1.805z"></path>
<path d="M34.812 29.894c0 0.997-0.779 1.805-1.741 1.805s-1.741-0.808-1.741-1.805c0-0.997 0.779-1.805 1.741-1.805s1.741 0.808 1.741 1.805z"></path>
<path d="M38.583 27.488c0 0.997-0.779 1.805-1.741 1.805s-1.741-0.808-1.741-1.805c0-0.997 0.779-1.805 1.741-1.805s1.741 0.808 1.741 1.805z"></path>
<path d="M42.936 24.781c0 0.997-0.779 1.805-1.741 1.805s-1.741-0.808-1.741-1.805c0-0.997 0.779-1.805 1.741-1.805s1.741 0.808 1.741 1.805z"></path>
<path d="M46.996 22.375c0 0.997-0.779 1.805-1.741 1.805s-1.741-0.808-1.741-1.805c0-0.997 0.779-1.805 1.741-1.805s1.741 0.808 1.741 1.805z"></path>
<path d="M42.065 29.594c0 0.997-0.779 1.805-1.741 1.805s-1.741-0.808-1.741-1.805c0-0.997 0.779-1.805 1.741-1.805s1.741 0.808 1.741 1.805z"></path>
<path d="M45.836 27.187c0 0.997-0.779 1.805-1.741 1.805s-1.741-0.808-1.741-1.805c0-0.997 0.779-1.805 1.741-1.805s1.741 0.808 1.741 1.805z"></path>
<path d="M50.188 24.481c0 0.997-0.779 1.805-1.741 1.805s-1.741-0.808-1.741-1.805c0-0.997 0.779-1.805 1.741-1.805s1.741 0.808 1.741 1.805z"></path>
<path d="M54.249 22.074c0 0.997-0.779 1.805-1.741 1.805s-1.741-0.808-1.741-1.805c0-0.997 0.779-1.805 1.741-1.805s1.741 0.808 1.741 1.805z"></path>
<path d="M48.737 21.773c0 0.997-0.779 1.805-1.741 1.805s-1.741-0.808-1.741-1.805c0-0.997 0.779-1.805 1.741-1.805s1.741 0.808 1.741 1.805z"></path>
<path d="M52.508 19.367c0 0.997-0.779 1.805-1.741 1.805s-1.741-0.808-1.741-1.805c0-0.997 0.779-1.805 1.741-1.805s1.741 0.808 1.741 1.805z"></path>
<path d="M56.86 16.66c0 0.997-0.779 1.805-1.741 1.805s-1.741-0.808-1.741-1.805c0-0.997 0.779-1.805 1.741-1.805s1.741 0.808 1.741 1.805z"></path>
<path d="M60.922 14.254c0 0.997-0.779 1.805-1.741 1.805s-1.741-0.808-1.741-1.805c0-0.997 0.779-1.805 1.741-1.805s1.741 0.808 1.741 1.805z"></path>
</symbol>
<symbol id="icon-dots-desktop" viewBox="0 0 100 32">
<path d="M45.81 25.797c0 0.287-0.219 0.52-0.488 0.52s-0.488-0.233-0.488-0.52c0-0.287 0.219-0.52 0.488-0.52s0.488 0.233 0.488 0.52z"></path>
<path d="M46.949 25.104c0 0.287-0.219 0.52-0.488 0.52s-0.488-0.233-0.488-0.52c0-0.287 0.219-0.52 0.488-0.52s0.488 0.233 0.488 0.52z"></path>
<path d="M44.915 27.705c0 0.287-0.219 0.52-0.488 0.52s-0.488-0.233-0.488-0.52c0-0.287 0.219-0.52 0.488-0.52s0.488 0.233 0.488 0.52z"></path>
<path d="M45.972 27.011c0 0.287-0.219 0.52-0.488 0.52s-0.488-0.233-0.488-0.52c0-0.287 0.219-0.52 0.488-0.52s0.488 0.233 0.488 0.52z"></path>
<path d="M47.193 26.231c0 0.287-0.219 0.52-0.488 0.52s-0.488-0.233-0.488-0.52c0-0.287 0.219-0.52 0.488-0.52s0.488 0.233 0.488 0.52z"></path>
<path d="M48.332 25.537c0 0.287-0.219 0.52-0.488 0.52s-0.488-0.233-0.488-0.52c0-0.287 0.219-0.52 0.488-0.52s0.488 0.233 0.488 0.52z"></path>
<path d="M46.705 27.792c0 0.287-0.219 0.52-0.488 0.52s-0.488-0.233-0.488-0.52c0-0.287 0.219-0.52 0.488-0.52s0.488 0.233 0.488 0.52z"></path>
<path d="M47.762 27.098c0 0.287-0.219 0.52-0.488 0.52s-0.488-0.233-0.488-0.52c0-0.287 0.219-0.52 0.488-0.52s0.488 0.233 0.488 0.52z"></path>
<path d="M48.983 26.318c0 0.287-0.219 0.52-0.488 0.52s-0.488-0.233-0.488-0.52c0-0.287 0.219-0.52 0.488-0.52s0.488 0.233 0.488 0.52z"></path>
<path d="M50.122 25.624c0 0.287-0.219 0.52-0.488 0.52s-0.488-0.233-0.488-0.52c0-0.287 0.219-0.52 0.488-0.52s0.488 0.233 0.488 0.52z"></path>
<path d="M48.82 27.792c0 0.287-0.219 0.52-0.488 0.52s-0.488-0.233-0.488-0.52c0-0.287 0.219-0.52 0.488-0.52s0.488 0.233 0.488 0.52z"></path>
<path d="M49.878 27.098c0 0.287-0.219 0.52-0.488 0.52s-0.488-0.233-0.488-0.52c0-0.287 0.219-0.52 0.488-0.52s0.488 0.233 0.488 0.52z"></path>
<path d="M51.098 26.318c0 0.287-0.219 0.52-0.488 0.52s-0.488-0.233-0.488-0.52c0-0.287 0.219-0.52 0.488-0.52s0.488 0.233 0.488 0.52z"></path>
<path d="M52.238 25.624c0 0.287-0.219 0.52-0.488 0.52s-0.488-0.233-0.488-0.52c0-0.287 0.219-0.52 0.488-0.52s0.488 0.233 0.488 0.52z"></path>
<path d="M50.61 27.705c0 0.287-0.219 0.52-0.488 0.52s-0.488-0.233-0.488-0.52c0-0.287 0.219-0.52 0.488-0.52s0.488 0.233 0.488 0.52z"></path>
<path d="M51.668 27.011c0 0.287-0.219 0.52-0.488 0.52s-0.488-0.233-0.488-0.52c0-0.287 0.219-0.52 0.488-0.52s0.488 0.233 0.488 0.52z"></path>
<path d="M52.889 26.231c0 0.287-0.219 0.52-0.488 0.52s-0.488-0.233-0.488-0.52c0-0.287 0.219-0.52 0.488-0.52s0.488 0.233 0.488 0.52z"></path>
<path d="M54.028 25.537c0 0.287-0.219 0.52-0.488 0.52s-0.488-0.233-0.488-0.52c0-0.287 0.219-0.52 0.488-0.52s0.488 0.233 0.488 0.52z"></path>
<path d="M52.644 27.618c0 0.287-0.219 0.52-0.488 0.52s-0.488-0.233-0.488-0.52c0-0.287 0.219-0.52 0.488-0.52s0.488 0.233 0.488 0.52z"></path>
<path d="M53.702 26.925c0 0.287-0.219 0.52-0.488 0.52s-0.488-0.233-0.488-0.52c0-0.287 0.219-0.52 0.488-0.52s0.488 0.233 0.488 0.52z"></path>
<path d="M54.923 26.144c0 0.287-0.219 0.52-0.488 0.52s-0.488-0.233-0.488-0.52c0-0.287 0.219-0.52 0.488-0.52s0.488 0.233 0.488 0.52z"></path>
<path d="M56.062 25.45c0 0.287-0.219 0.52-0.488 0.52s-0.488-0.233-0.488-0.52c0-0.287 0.219-0.52 0.488-0.52s0.488 0.233 0.488 0.52z"></path>
<path d="M54.516 25.364c0 0.287-0.219 0.52-0.488 0.52s-0.488-0.233-0.488-0.52c0-0.287 0.219-0.52 0.488-0.52s0.488 0.233 0.488 0.52z"></path>
<path d="M55.574 24.67c0 0.287-0.219 0.52-0.488 0.52s-0.488-0.233-0.488-0.52c0-0.287 0.219-0.52 0.488-0.52s0.488 0.233 0.488 0.52z"></path>
<path d="M56.794 23.889c0 0.287-0.219 0.52-0.488 0.52s-0.488-0.233-0.488-0.52c0-0.287 0.219-0.52 0.488-0.52s0.488 0.233 0.488 0.52z"></path>
<path d="M57.933 23.196c0 0.287-0.219 0.52-0.488 0.52s-0.488-0.233-0.488-0.52c0-0.287 0.219-0.52 0.488-0.52s0.488 0.233 0.488 0.52z"></path>
</symbol>
<symbol id="icon-cow" viewBox="0 0 32 32">
<path d="M6.169 0.192c-0.262 0.226-1.008 1.781-1.276 2.631-0.318 1.052-0.427 1.842-0.384 2.932 0.058 1.556 0.449 2.736 1.31 3.969 0.225 0.323 0.406 0.601 0.406 0.624 0 0.015-0.138 0.029-0.311 0.029-0.747 0-2.144 0.249-3.215 0.572-1.7 0.511-2.7 1.405-2.7 2.405 0 0.354 0.318 0.955 0.659 1.262 0.659 0.595 2.1 1.158 3.649 1.428 0.536 0.098 2.129 0.263 2.484 0.271 0.065 0 0.087 0.346 0.087 1.481 0 0.977 0.036 1.736 0.108 2.202 0.26 1.668 1.071 3.436 2.142 4.683l0.37 0.428-0.246 0.399c-0.362 0.564-0.5 0.992-0.542 1.631-0.109 1.533 0.846 2.893 2.693 3.849 3.517 1.826 8.984 1.111 11.033-1.444 0.999-1.248 1.115-2.676 0.325-3.969l-0.246-0.398 0.442-0.533c0.826-0.993 1.361-1.985 1.766-3.24 0.34-1.068 0.471-2.098 0.471-3.729 0-0.744 0.021-1.36 0.058-1.36 0.333-0.008 1.933-0.18 2.44-0.271 1.556-0.27 2.969-0.827 3.649-1.428 0.34-0.308 0.659-0.909 0.659-1.263 0-1.113-1.129-2.014-3.229-2.556-0.687-0.18-1.983-0.398-2.613-0.436l-0.297-0.023 0.326-0.451c0.405-0.549 0.912-1.616 1.108-2.316 0.55-2.021 0.21-4.374-0.97-6.622-0.493-0.932-0.834-1.149-1.231-0.782-0.152 0.144-0.218 0.339-0.362 1.045-0.449 2.248-1.282 4.029-2.498 5.345l-0.536 0.587h-11.453l-0.478-0.519c-1.187-1.308-2.049-3.157-2.498-5.412-0.145-0.707-0.21-0.901-0.362-1.044-0.239-0.218-0.471-0.211-0.738 0.022zM7.095 4.65c0.384 0.842 0.862 1.631 1.426 2.36l0.449 0.579-0.47 0.354c-0.442 0.338-0.854 0.819-1.173 1.368l-0.137 0.248-0.348-0.474c-1.188-1.639-1.484-3.645-0.854-5.728 0.304-1.007 0.297-0.999 0.572-0.127 0.131 0.42 0.377 1.060 0.536 1.42zM25.94 3.064c0.262 0.728 0.414 1.569 0.414 2.445 0 0.031-0 0.062-0.001 0.093l0-0.005c0 1.367-0.362 2.524-1.122 3.563l-0.34 0.466-0.253-0.428c-0.328-0.556-0.752-1.019-1.254-1.382l-0.013-0.009c-0.196-0.127-0.347-0.255-0.347-0.27 0-0.022 0.137-0.196 0.311-0.383 0.804-0.895 1.665-2.503 2.092-3.886 0.13-0.428 0.26-0.782 0.282-0.782s0.131 0.263 0.231 0.58zM22.241 8.558c0.804 0.338 1.571 1.308 1.694 2.127 0.065 0.451 0.217 0.737 0.412 0.782 0.087 0.014 0.688 0.068 1.332 0.112 2.287 0.151 4.090 0.64 4.858 1.308 0.355 0.316 0.318 0.578-0.108 0.901-0.854 0.647-2.7 1.135-4.583 1.218-1.245 0.053-1.506 0.091-1.673 0.263-0.123 0.128-0.137 0.263-0.137 1.624 0 1.842-0.094 2.901-0.326 3.758-0.325 1.164-0.97 2.405-1.723 3.284l-0.311 0.361-0.644-0.383c-0.687-0.426-1.485-0.76-2.335-0.958l-0.054-0.011c-2.744-0.655-5.778-0.256-7.819 1.029l-0.471 0.3-0.297-0.354c-0.405-0.473-1.043-1.488-1.296-2.060-0.557-1.292-0.724-2.345-0.724-4.66 0-2.248 0.116-2.083-1.549-2.172-2.129-0.113-3.751-0.496-4.772-1.143-0.753-0.48-0.629-0.909 0.42-1.413 1.006-0.488 2.388-0.781 4.308-0.901 1.492-0.098 1.527-0.12 1.665-0.842 0.203-1.090 1.006-1.992 2.020-2.277 0.253-0.076 1.672-0.091 6.016-0.083l5.684 0.015 0.412 0.172zM18.172 24.117c1.774 0.436 3.099 1.248 3.671 2.255 0.138 0.233 0.196 0.474 0.224 0.842 0.029 0.459 0.008 0.572-0.166 0.948-0.804 1.707-3.757 2.834-6.762 2.578-3.612-0.3-5.988-2.315-5.053-4.292 0.507-1.068 2.222-2.090 4.032-2.391 0.297-0.044 0.594-0.098 0.652-0.112s0.71-0.015 1.449 0c1.005 0.022 1.491 0.068 1.954 0.172z"></path>
<path d="M10.99 12.321c-0.45 0.151-0.754 0.347-1.159 0.752-0.355 0.338-0.383 0.736-0.086 0.977 0.276 0.225 0.535 0.196 0.868-0.098 0.42-0.368 0.746-0.518 1.151-0.518 0.405-0.008 0.716 0.135 1.151 0.518 0.333 0.293 0.594 0.323 0.868 0.098 0.145-0.12 0.188-0.218 0.188-0.444 0-0.232-0.051-0.338-0.304-0.593-0.716-0.721-1.781-0.999-2.679-0.692zM19.431 12.313c-0.462 0.173-1.057 0.564-1.295 0.857-0.232 0.286-0.24 0.609 0 0.85 0.238 0.255 0.528 0.24 0.876-0.045 0.854-0.707 1.492-0.729 2.281-0.076 0.203 0.173 0.434 0.308 0.507 0.308 0.355 0 0.644-0.316 0.644-0.692 0-0.24-0.601-0.796-1.144-1.060-0.601-0.293-1.317-0.346-1.868-0.142zM12.040 26.224c-0.21 0.203-0.283 0.496-0.174 0.729 0.080 0.187 0.203 0.263 0.702 0.398 0.225 0.060 0.319 0.135 0.398 0.323 0.101 0.249 0.109 0.249 0.667 0.271l0.557 0.022v-0.211c-0.007-0.3-0.174-0.736-0.391-1.036-0.253-0.347-0.695-0.572-1.195-0.617-0.34-0.030-0.427-0.015-0.564 0.121zM18.954 26.171c-0.362 0.098-0.884 0.587-1.028 0.969-0.072 0.201-0.121 0.435-0.137 0.677l-0 0.008c-0.015 0.323 0.014 0.398 0.188 0.556 0.427 0.376 0.992 0.083 0.992-0.518 0-0.293 0.217-0.496 0.601-0.571 0.405-0.076 0.551-0.241 0.557-0.624 0-0.504-0.449-0.699-1.173-0.496z"></path>
</symbol>
<symbol id="icon-arrow" viewBox="0 0 82 32">
<path d="M81.414 17.414c0.362-0.362 0.586-0.862 0.586-1.414s-0.224-1.052-0.586-1.414l-12.728-12.728c-0.364-0.377-0.874-0.611-1.439-0.611-1.105 0-2 0.895-2 2 0 0.565 0.234 1.074 0.61 1.438l0.001 0.001 11.314 11.314-11.314 11.314c-0.347 0.359-0.561 0.849-0.561 1.389 0 1.105 0.895 2 2 2 0.54 0 1.030-0.214 1.39-0.562l-0.001 0.001 12.728-12.728zM0 18h80v-4h-80v4z"></path>
</symbol>
<symbol id="icon-arrow-btn" viewBox="0 0 32 32">
<path d="M10.587 3.272c-0.361 0.362-0.585 0.861-0.585 1.413s0.223 1.051 0.585 1.413l9.899 9.901-9.899 9.899c-0.333 0.356-0.537 0.836-0.537 1.363 0 1.105 0.895 2 2 2 0.527 0 1.007-0.204 1.365-0.538l-0.001 0.001 11.315-11.312c0.361-0.362 0.585-0.861 0.585-1.413s-0.224-1.052-0.585-1.413l-11.315-11.315c-0.362-0.361-0.861-0.585-1.413-0.585s-1.052 0.224-1.413 0.585l0-0z"></path>
</symbol>
</defs>
</svg>
