<svg width="494" height="340" viewBox="0 0 494 340" fill="none" xmlns="http://www.w3.org/2000/svg">
<ellipse cx="213.193" cy="32.7546" rx="5.85842" ry="6.2439" fill="#F8D24E"/>
<ellipse cx="225.886" cy="24.4294" rx="5.85842" ry="6.2439" fill="#F8D24E"/>
<ellipse cx="240.532" cy="15.0635" rx="5.85842" ry="6.2439" fill="#F8D24E"/>
<ellipse cx="254.202" cy="6.73829" rx="5.85842" ry="6.2439" fill="#F8D24E"/>
<ellipse cx="194.641" cy="54.6082" rx="5.85842" ry="6.2439" fill="#F8D24E"/>
<ellipse cx="207.335" cy="46.283" rx="5.85842" ry="6.2439" fill="#F8D24E"/>
<ellipse cx="221.98" cy="36.9172" rx="5.85842" ry="6.2439" fill="#F8D24E"/>
<ellipse cx="235.65" cy="28.592" rx="5.85842" ry="6.2439" fill="#F8D24E"/>
<ellipse cx="166.325" cy="55.6489" rx="5.85842" ry="6.2439" fill="#F8D24E"/>
<ellipse cx="179.019" cy="47.3237" rx="5.85842" ry="6.2439" fill="#F8D24E"/>
<ellipse cx="193.665" cy="37.9578" rx="5.85842" ry="6.2439" fill="#F8D24E"/>
<ellipse cx="207.335" cy="29.6326" rx="5.85842" ry="6.2439" fill="#F8D24E"/>
<ellipse cx="150.703" cy="79.5837" rx="5.85842" ry="6.2439" fill="#F8D24E"/>
<ellipse cx="163.396" cy="71.2586" rx="5.85842" ry="6.2439" fill="#F8D24E"/>
<ellipse cx="178.042" cy="61.8928" rx="5.85842" ry="6.2439" fill="#F8D24E"/>
<ellipse cx="191.712" cy="53.5676" rx="5.85842" ry="6.2439" fill="#F8D24E"/>
<ellipse cx="138.986" cy="101.438" rx="5.85842" ry="6.2439" fill="#F8D24E"/>
<ellipse cx="151.679" cy="93.1123" rx="5.85842" ry="6.2439" fill="#F8D24E"/>
<ellipse cx="166.325" cy="83.7463" rx="5.85842" ry="6.2439" fill="#F8D24E"/>
<ellipse cx="179.995" cy="75.4212" rx="5.85842" ry="6.2439" fill="#F8D24E"/>
<ellipse rx="5.85842" ry="6.2439" transform="matrix(0.999999 0.00156002 -0.00137335 0.999999 130.208 123.3)" fill="#F8D24E"/>
<ellipse rx="5.85842" ry="6.2439" transform="matrix(0.999999 0.00156002 -0.00137335 0.999999 142.912 114.995)" fill="#F8D24E"/>
<ellipse rx="5.85842" ry="6.2439" transform="matrix(0.999999 0.00156002 -0.00137335 0.999999 157.572 105.652)" fill="#F8D24E"/>
<ellipse rx="5.85842" ry="6.2439" transform="matrix(0.999999 0.00156002 -0.00137335 0.999999 171.253 97.348)" fill="#F8D24E"/>
<ellipse rx="5.85842" ry="6.2439" transform="matrix(0.999999 0.00156002 -0.00137335 0.999999 6.22777 160.806)" fill="#F8D24E"/>
<ellipse rx="5.85842" ry="6.2439" transform="matrix(0.999999 0.00156002 -0.00137335 0.999999 19.9094 152.502)" fill="#F8D24E"/>
<ellipse rx="5.85842" ry="6.2439" transform="matrix(0.999999 0.00156002 -0.00137335 0.999999 91.1511 132.666)" fill="#F8D24E"/>
<ellipse rx="5.85842" ry="6.2439" transform="matrix(0.999999 0.00156002 -0.00137335 0.999999 103.856 124.361)" fill="#F8D24E"/>
<ellipse rx="5.85842" ry="6.2439" transform="matrix(0.999999 0.00156002 -0.00137335 0.999999 118.514 115.018)" fill="#F8D24E"/>
<ellipse rx="5.85842" ry="6.2439" transform="matrix(0.999999 0.00156002 -0.00137335 0.999999 132.196 106.713)" fill="#F8D24E"/>
<ellipse cx="7.17141" cy="142.023" rx="5.85842" ry="6.2439" fill="#F8D24E"/>
<ellipse cx="20.8413" cy="133.698" rx="5.85842" ry="6.2439" fill="#F8D24E"/>
<ellipse cx="39.3926" cy="124.332" rx="5.85842" ry="6.2439" fill="#F8D24E"/>
<ellipse cx="52.0864" cy="116.007" rx="5.85842" ry="6.2439" fill="#F8D24E"/>
<ellipse cx="66.7324" cy="106.64" rx="5.85842" ry="6.2439" fill="#F8D24E"/>
<ellipse cx="80.4019" cy="98.3152" rx="5.85842" ry="6.2439" fill="#F8D24E"/>
<ellipse cx="64.7793" cy="136.819" rx="5.85842" ry="6.2439" fill="#F8D24E"/>
<ellipse cx="77.4727" cy="128.494" rx="5.85842" ry="6.2439" fill="#F8D24E"/>
<ellipse cx="92.1192" cy="119.129" rx="5.85842" ry="6.2439" fill="#F8D24E"/>
<ellipse cx="105.789" cy="110.803" rx="5.85842" ry="6.2439" fill="#F8D24E"/>
<ellipse cx="66.7324" cy="120.169" rx="5.85842" ry="6.2439" fill="#F8D24E"/>
<ellipse cx="79.4258" cy="111.844" rx="5.85842" ry="6.2439" fill="#F8D24E"/>
<ellipse cx="94.0718" cy="102.478" rx="5.85842" ry="6.2439" fill="#F8D24E"/>
<ellipse cx="107.741" cy="94.1528" rx="5.85842" ry="6.2439" fill="#F8D24E"/>
<ellipse cx="13.0298" cy="126.413" rx="5.85842" ry="6.2439" fill="#F8D24E"/>
<ellipse cx="25.7232" cy="118.088" rx="5.85842" ry="6.2439" fill="#F8D24E"/>
<ellipse cx="40.3697" cy="108.722" rx="5.85842" ry="6.2439" fill="#F8D24E"/>
<ellipse cx="54.0386" cy="100.397" rx="5.85842" ry="6.2439" fill="#F8D24E"/>
<ellipse rx="5.86745" ry="6.23032" transform="matrix(0.986931 -0.161124 0.142489 0.989794 446.19 303.798)" fill="#F8D24E"/>
<ellipse rx="5.86745" ry="6.23032" transform="matrix(0.986931 -0.161124 0.142489 0.989794 457.553 293.528)" fill="#F8D24E"/>
<ellipse rx="5.86745" ry="6.23032" transform="matrix(0.986931 -0.161124 0.142489 0.989794 470.699 281.914)" fill="#F8D24E"/>
<ellipse rx="5.86745" ry="6.23032" transform="matrix(0.986931 -0.161124 0.142489 0.989794 483.027 271.486)" fill="#F8D24E"/>
<ellipse cx="213.193" cy="56.6895" rx="5.85842" ry="6.2439" fill="#F8D24E"/>
<ellipse cx="225.886" cy="48.3643" rx="5.85842" ry="6.2439" fill="#F8D24E"/>
<ellipse cx="240.532" cy="38.9985" rx="5.85842" ry="6.2439" fill="#F8D24E"/>
<ellipse cx="254.202" cy="30.6733" rx="5.85842" ry="6.2439" fill="#F8D24E"/>
<ellipse cx="211.24" cy="99.3562" rx="5.85842" ry="6.2439" fill="#F8D24E"/>
<ellipse cx="223.933" cy="91.031" rx="5.85842" ry="6.2439" fill="#F8D24E"/>
<ellipse cx="238.58" cy="81.6648" rx="5.85842" ry="6.2439" fill="#F8D24E"/>
<ellipse cx="252.249" cy="73.3396" rx="5.85842" ry="6.2439" fill="#F8D24E"/>
<ellipse cx="214.169" cy="77.5024" rx="5.85842" ry="6.2439" fill="#F8D24E"/>
<ellipse cx="226.862" cy="69.1773" rx="5.85842" ry="6.2439" fill="#F8D24E"/>
<ellipse cx="241.509" cy="59.8115" rx="5.85842" ry="6.2439" fill="#F8D24E"/>
<ellipse cx="255.178" cy="51.4863" rx="5.85842" ry="6.2439" fill="#F8D24E"/>
<ellipse cx="212.216" cy="120.169" rx="5.85842" ry="6.2439" fill="#F8D24E"/>
<ellipse cx="224.91" cy="111.844" rx="5.85842" ry="6.2439" fill="#F8D24E"/>
<ellipse cx="239.556" cy="102.478" rx="5.85842" ry="6.2439" fill="#F8D24E"/>
<ellipse cx="253.225" cy="94.1528" rx="5.85842" ry="6.2439" fill="#F8D24E"/>
<ellipse cx="218.075" cy="134.738" rx="5.85842" ry="6.2439" fill="#F8D24E"/>
<ellipse cx="230.768" cy="126.413" rx="5.85842" ry="6.2439" fill="#F8D24E"/>
<ellipse cx="245.414" cy="117.047" rx="5.85842" ry="6.2439" fill="#F8D24E"/>
<ellipse cx="259.084" cy="108.722" rx="5.85842" ry="6.2439" fill="#F8D24E"/>
<ellipse cx="230.768" cy="146.185" rx="5.85842" ry="6.2439" fill="#F8D24E"/>
<ellipse cx="243.461" cy="137.86" rx="5.85842" ry="6.2439" fill="#F8D24E"/>
<ellipse cx="258.107" cy="128.494" rx="5.85842" ry="6.2439" fill="#F8D24E"/>
<ellipse cx="271.777" cy="120.169" rx="5.85842" ry="6.2439" fill="#F8D24E"/>
<ellipse cx="247.367" cy="155.551" rx="5.85842" ry="6.2439" fill="#F8D24E"/>
<ellipse cx="260.06" cy="147.226" rx="5.85842" ry="6.2439" fill="#F8D24E"/>
<ellipse cx="274.706" cy="137.86" rx="5.85842" ry="6.2439" fill="#F8D24E"/>
<ellipse cx="288.376" cy="129.535" rx="5.85842" ry="6.2439" fill="#F8D24E"/>
<ellipse cx="266.895" cy="157.633" rx="5.85842" ry="6.2439" fill="#F8D24E"/>
<ellipse cx="279.588" cy="149.307" rx="5.85842" ry="6.2439" fill="#F8D24E"/>
<ellipse cx="294.234" cy="139.942" rx="5.85842" ry="6.2439" fill="#F8D24E"/>
<ellipse cx="307.904" cy="131.616" rx="5.85842" ry="6.2439" fill="#F8D24E"/>
<ellipse cx="286.423" cy="161.795" rx="5.85842" ry="6.2439" fill="#F8D24E"/>
<ellipse cx="299.117" cy="153.47" rx="5.85842" ry="6.2439" fill="#F8D24E"/>
<ellipse cx="313.763" cy="144.104" rx="5.85842" ry="6.2439" fill="#F8D24E"/>
<ellipse cx="327.433" cy="135.779" rx="5.85842" ry="6.2439" fill="#F8D24E"/>
<ellipse cx="281.542" cy="181.568" rx="5.85842" ry="6.2439" fill="#F8D24E"/>
<ellipse cx="294.234" cy="173.242" rx="5.85842" ry="6.2439" fill="#F8D24E"/>
<ellipse cx="308.88" cy="163.876" rx="5.85842" ry="6.2439" fill="#F8D24E"/>
<ellipse cx="322.55" cy="155.551" rx="5.85842" ry="6.2439" fill="#F8D24E"/>
<ellipse cx="279.588" cy="200.299" rx="5.85842" ry="6.2439" fill="#F8D24E"/>
<ellipse cx="292.282" cy="191.974" rx="5.85842" ry="6.2439" fill="#F8D24E"/>
<ellipse cx="306.928" cy="182.608" rx="5.85842" ry="6.2439" fill="#F8D24E"/>
<ellipse cx="320.597" cy="174.283" rx="5.85842" ry="6.2439" fill="#F8D24E"/>
<ellipse cx="272.753" cy="224.234" rx="5.85842" ry="6.2439" fill="#F8D24E"/>
<ellipse cx="285.447" cy="215.909" rx="5.85842" ry="6.2439" fill="#F8D24E"/>
<ellipse cx="300.093" cy="206.543" rx="5.85842" ry="6.2439" fill="#F8D24E"/>
<ellipse cx="313.763" cy="198.218" rx="5.85842" ry="6.2439" fill="#F8D24E"/>
<ellipse cx="269.824" cy="245.047" rx="5.85842" ry="6.2439" fill="#F8D24E"/>
<ellipse cx="282.517" cy="236.722" rx="5.85842" ry="6.2439" fill="#F8D24E"/>
<ellipse cx="297.163" cy="227.356" rx="5.85842" ry="6.2439" fill="#F8D24E"/>
<ellipse cx="310.833" cy="219.031" rx="5.85842" ry="6.2439" fill="#F8D24E"/>
<ellipse cx="265.918" cy="266.901" rx="5.85842" ry="6.2439" fill="#F8D24E"/>
<ellipse cx="278.612" cy="258.576" rx="5.85842" ry="6.2439" fill="#F8D24E"/>
<ellipse cx="293.258" cy="249.21" rx="5.85842" ry="6.2439" fill="#F8D24E"/>
<ellipse cx="306.928" cy="240.885" rx="5.85842" ry="6.2439" fill="#F8D24E"/>
<ellipse cx="263.965" cy="284.592" rx="5.85842" ry="6.2439" fill="#F8D24E"/>
<ellipse cx="276.659" cy="276.267" rx="5.85842" ry="6.2439" fill="#F8D24E"/>
<ellipse cx="291.305" cy="266.901" rx="5.85842" ry="6.2439" fill="#F8D24E"/>
<ellipse cx="304.975" cy="258.576" rx="5.85842" ry="6.2439" fill="#F8D24E"/>
<ellipse cx="262.013" cy="303.324" rx="5.85842" ry="6.2439" fill="#F8D24E"/>
<ellipse cx="274.707" cy="294.998" rx="5.85842" ry="6.2439" fill="#F8D24E"/>
<ellipse cx="289.353" cy="285.633" rx="5.85842" ry="6.2439" fill="#F8D24E"/>
<ellipse cx="303.022" cy="277.307" rx="5.85842" ry="6.2439" fill="#F8D24E"/>
<ellipse cx="267.871" cy="318.933" rx="5.85842" ry="6.2439" fill="#F8D24E"/>
<ellipse cx="280.564" cy="310.608" rx="5.85842" ry="6.2439" fill="#F8D24E"/>
<ellipse cx="295.21" cy="301.242" rx="5.85842" ry="6.2439" fill="#F8D24E"/>
<ellipse cx="308.88" cy="292.917" rx="5.85842" ry="6.2439" fill="#F8D24E"/>
<ellipse cx="282.518" cy="327.259" rx="5.85842" ry="6.2439" fill="#F8D24E"/>
<ellipse cx="295.211" cy="318.933" rx="5.85842" ry="6.2439" fill="#F8D24E"/>
<ellipse cx="309.857" cy="309.568" rx="5.85842" ry="6.2439" fill="#F8D24E"/>
<ellipse cx="323.526" cy="301.242" rx="5.85842" ry="6.2439" fill="#F8D24E"/>
<ellipse cx="299.117" cy="332.462" rx="5.85842" ry="6.2439" fill="#F8D24E"/>
<ellipse cx="311.81" cy="324.137" rx="5.85842" ry="6.2439" fill="#F8D24E"/>
<ellipse cx="326.456" cy="314.771" rx="5.85842" ry="6.2439" fill="#F8D24E"/>
<ellipse cx="340.126" cy="306.446" rx="5.85842" ry="6.2439" fill="#F8D24E"/>
<ellipse cx="320.597" cy="333.503" rx="5.85842" ry="6.2439" fill="#F8D24E"/>
<ellipse cx="333.291" cy="325.177" rx="5.85842" ry="6.2439" fill="#F8D24E"/>
<ellipse cx="347.937" cy="315.811" rx="5.85842" ry="6.2439" fill="#F8D24E"/>
<ellipse cx="361.606" cy="307.486" rx="5.85842" ry="6.2439" fill="#F8D24E"/>
<ellipse cx="345.984" cy="333.503" rx="5.85842" ry="6.2439" fill="#F8D24E"/>
<ellipse cx="358.677" cy="325.177" rx="5.85842" ry="6.2439" fill="#F8D24E"/>
<ellipse cx="373.323" cy="315.811" rx="5.85842" ry="6.2439" fill="#F8D24E"/>
<ellipse cx="386.993" cy="307.486" rx="5.85842" ry="6.2439" fill="#F8D24E"/>
<ellipse cx="367.464" cy="332.462" rx="5.85842" ry="6.2439" fill="#F8D24E"/>
<ellipse cx="380.157" cy="324.137" rx="5.85842" ry="6.2439" fill="#F8D24E"/>
<ellipse cx="394.804" cy="314.771" rx="5.85842" ry="6.2439" fill="#F8D24E"/>
<ellipse cx="408.473" cy="306.446" rx="5.85842" ry="6.2439" fill="#F8D24E"/>
<ellipse cx="391.875" cy="331.421" rx="5.85842" ry="6.2439" fill="#F8D24E"/>
<ellipse cx="404.568" cy="323.096" rx="5.85842" ry="6.2439" fill="#F8D24E"/>
<ellipse cx="419.213" cy="313.73" rx="5.85842" ry="6.2439" fill="#F8D24E"/>
<ellipse cx="432.883" cy="305.405" rx="5.85842" ry="6.2439" fill="#F8D24E"/>
<ellipse cx="414.332" cy="304.364" rx="5.85842" ry="6.2439" fill="#F8D24E"/>
<ellipse cx="427.025" cy="296.039" rx="5.85842" ry="6.2439" fill="#F8D24E"/>
<ellipse cx="441.671" cy="286.673" rx="5.85842" ry="6.2439" fill="#F8D24E"/>
<ellipse cx="455.341" cy="278.348" rx="5.85842" ry="6.2439" fill="#F8D24E"/>
</svg>
