<svg width="172" height="56" viewBox="0 0 172 56" fill="none" xmlns="http://www.w3.org/2000/svg">
<ellipse cx="134.744" cy="14.218" rx="5.85842" ry="6.2439" fill="#F8D24E"/>
<ellipse cx="52.7256" cy="48.5593" rx="5.85842" ry="6.2439" fill="#F8D24E"/>
<ellipse cx="65.419" cy="40.2341" rx="5.85842" ry="6.2439" fill="#F8D24E"/>
<ellipse cx="80.065" cy="30.8683" rx="5.85842" ry="6.2439" fill="#F8D24E"/>
<ellipse cx="93.7349" cy="22.5431" rx="5.85842" ry="6.2439" fill="#F8D24E"/>
<ellipse cx="5.85842" cy="46.478" rx="5.85842" ry="6.2439" fill="#F8D24E"/>
<ellipse cx="18.5513" cy="38.1528" rx="5.85842" ry="6.2439" fill="#F8D24E"/>
<ellipse cx="33.1978" cy="28.7871" rx="5.85842" ry="6.2439" fill="#F8D24E"/>
<ellipse cx="46.8672" cy="20.4619" rx="5.85842" ry="6.2439" fill="#F8D24E"/>
<ellipse cx="80.065" cy="49.6001" rx="5.85842" ry="6.2439" fill="#F8D24E"/>
<ellipse cx="92.7578" cy="41.2749" rx="5.85842" ry="6.2439" fill="#F8D24E"/>
<ellipse cx="107.404" cy="31.9089" rx="5.85842" ry="6.2439" fill="#F8D24E"/>
<ellipse cx="121.074" cy="23.5837" rx="5.85842" ry="6.2439" fill="#F8D24E"/>
<ellipse cx="110.334" cy="45.4375" rx="5.85842" ry="6.2439" fill="#F8D24E"/>
<ellipse cx="123.027" cy="37.1123" rx="5.85842" ry="6.2439" fill="#F8D24E"/>
<ellipse cx="137.673" cy="27.7463" rx="5.85842" ry="6.2439" fill="#F8D24E"/>
<ellipse cx="151.343" cy="19.4211" rx="5.85842" ry="6.2439" fill="#F8D24E"/>
<ellipse cx="165.989" cy="6.93336" rx="5.85842" ry="6.2439" fill="#F8D24E"/>
<ellipse cx="28.3159" cy="47.5187" rx="5.85842" ry="6.2439" fill="#F8D24E"/>
<ellipse cx="41.0088" cy="39.1935" rx="5.85842" ry="6.2439" fill="#F8D24E"/>
<ellipse cx="55.6548" cy="29.8276" rx="5.85842" ry="6.2439" fill="#F8D24E"/>
<ellipse cx="69.3242" cy="21.5026" rx="5.85842" ry="6.2439" fill="#F8D24E"/>
</svg>
