<svg width="286" height="110" viewBox="0 0 286 110" fill="none" xmlns="http://www.w3.org/2000/svg">
<ellipse cx="110.248" cy="102.672" rx="5.85842" ry="6.23878" fill="#F8D24E"/>
<ellipse cx="122.94" cy="94.3534" rx="5.85842" ry="6.23878" fill="#F8D24E"/>
<ellipse cx="137.586" cy="84.9951" rx="5.85842" ry="6.23878" fill="#F8D24E"/>
<ellipse cx="151.256" cy="76.6768" rx="5.85842" ry="6.23878" fill="#F8D24E"/>
<ellipse cx="143.445" cy="98.5127" rx="5.85842" ry="6.23878" fill="#F8D24E"/>
<ellipse cx="156.138" cy="90.1942" rx="5.85842" ry="6.23878" fill="#F8D24E"/>
<ellipse cx="170.784" cy="80.836" rx="5.85842" ry="6.23878" fill="#F8D24E"/>
<ellipse cx="184.454" cy="72.5176" rx="5.85842" ry="6.23878" fill="#F8D24E"/>
<ellipse cx="171.761" cy="95.3932" rx="5.85842" ry="6.23878" fill="#F8D24E"/>
<ellipse cx="184.455" cy="87.0748" rx="5.85842" ry="6.23878" fill="#F8D24E"/>
<ellipse cx="199.101" cy="77.7166" rx="5.85842" ry="6.23878" fill="#F8D24E"/>
<ellipse cx="212.77" cy="69.3982" rx="5.85842" ry="6.23878" fill="#F8D24E"/>
<ellipse cx="199.101" cy="91.2339" rx="5.85842" ry="6.23878" fill="#F8D24E"/>
<ellipse cx="211.793" cy="82.9157" rx="5.85842" ry="6.23878" fill="#F8D24E"/>
<ellipse cx="226.439" cy="73.5574" rx="5.85842" ry="6.23878" fill="#F8D24E"/>
<ellipse cx="240.109" cy="65.239" rx="5.85842" ry="6.23878" fill="#F8D24E"/>
<ellipse cx="207.888" cy="102.672" rx="5.85842" ry="6.23878" fill="#F8D24E"/>
<ellipse cx="220.581" cy="94.3534" rx="5.85842" ry="6.23878" fill="#F8D24E"/>
<ellipse cx="238.156" cy="103.712" rx="5.85842" ry="6.23878" fill="#F8D24E"/>
<ellipse cx="235.227" cy="84.9951" rx="5.85842" ry="6.23878" fill="#F8D24E"/>
<ellipse cx="252.802" cy="94.3534" rx="5.85842" ry="6.23878" fill="#F8D24E"/>
<ellipse cx="266.471" cy="103.712" rx="5.85842" ry="6.23878" fill="#F8D24E"/>
<ellipse cx="248.896" cy="76.6768" rx="5.85842" ry="6.23878" fill="#F8D24E"/>
<ellipse cx="266.471" cy="86.0349" rx="5.85842" ry="6.23878" fill="#F8D24E"/>
<ellipse cx="280.141" cy="95.3931" rx="5.85842" ry="6.23878" fill="#F8D24E"/>
<ellipse cx="50.687" cy="34.0451" rx="5.85842" ry="6.23878" fill="#F8D24E"/>
<ellipse cx="63.3799" cy="25.7267" rx="5.85842" ry="6.23878" fill="#F8D24E"/>
<ellipse cx="78.0264" cy="16.3685" rx="5.85842" ry="6.23878" fill="#F8D24E"/>
<ellipse cx="91.6953" cy="8.05006" rx="5.85842" ry="6.23878" fill="#F8D24E"/>
<ellipse cx="26.2764" cy="33.0053" rx="5.85842" ry="6.23878" fill="#F8D24E"/>
<ellipse cx="38.9697" cy="24.6869" rx="5.85842" ry="6.23878" fill="#F8D24E"/>
<ellipse cx="53.6162" cy="15.3289" rx="5.85842" ry="6.23878" fill="#F8D24E"/>
<ellipse cx="67.2852" cy="7.01039" rx="5.85842" ry="6.23878" fill="#F8D24E"/>
<ellipse cx="80.9556" cy="102.672" rx="5.85842" ry="6.23878" fill="#F8D24E"/>
<ellipse cx="93.6485" cy="94.3534" rx="5.85842" ry="6.23878" fill="#F8D24E"/>
<ellipse cx="108.295" cy="84.9951" rx="5.85842" ry="6.23878" fill="#F8D24E"/>
<ellipse cx="121.964" cy="76.6768" rx="5.85842" ry="6.23878" fill="#F8D24E"/>
<ellipse cx="65.333" cy="96.4329" rx="5.85842" ry="6.23878" fill="#F8D24E"/>
<ellipse cx="78.0264" cy="88.1145" rx="5.85842" ry="6.23878" fill="#F8D24E"/>
<ellipse cx="92.6724" cy="78.7565" rx="5.85842" ry="6.23878" fill="#F8D24E"/>
<ellipse cx="106.341" cy="70.438" rx="5.85842" ry="6.23878" fill="#F8D24E"/>
<ellipse cx="71.1914" cy="74.5973" rx="5.85842" ry="6.23878" fill="#F8D24E"/>
<ellipse cx="83.8848" cy="66.2789" rx="5.85842" ry="6.23878" fill="#F8D24E"/>
<ellipse cx="98.5308" cy="56.9207" rx="5.85842" ry="6.23878" fill="#F8D24E"/>
<ellipse cx="112.2" cy="48.6023" rx="5.85842" ry="6.23878" fill="#F8D24E"/>
<ellipse cx="71.1914" cy="38.2042" rx="5.85842" ry="6.23878" fill="#F8D24E"/>
<ellipse cx="83.8848" cy="29.8859" rx="5.85842" ry="6.23878" fill="#F8D24E"/>
<ellipse cx="98.5308" cy="20.5277" rx="5.85842" ry="6.23878" fill="#F8D24E"/>
<ellipse cx="112.2" cy="12.2092" rx="5.85842" ry="6.23878" fill="#F8D24E"/>
<ellipse cx="68.2622" cy="57.9603" rx="5.85842" ry="6.23878" fill="#F8D24E"/>
<ellipse cx="80.9556" cy="49.642" rx="5.85842" ry="6.23878" fill="#F8D24E"/>
<ellipse cx="95.6016" cy="40.2838" rx="5.85842" ry="6.23878" fill="#F8D24E"/>
<ellipse cx="109.271" cy="31.9655" rx="5.85842" ry="6.23878" fill="#F8D24E"/>
<ellipse cx="6.74905" cy="27.8062" rx="5.85842" ry="6.23878" fill="#F8D24E"/>
<ellipse cx="19.4419" cy="19.4879" rx="5.85842" ry="6.23878" fill="#F8D24E"/>
<ellipse cx="34.0879" cy="10.1298" rx="5.85842" ry="6.23878" fill="#F8D24E"/>
<path d="M33.1118 34.0449C36.3474 34.0449 38.9703 31.2517 38.9703 27.8062C38.9703 24.3606 36.3474 21.5674 33.1118 21.5674C29.8763 21.5674 27.2534 24.3606 27.2534 27.8062C27.2534 31.2517 29.8763 34.0449 33.1118 34.0449Z" fill="#F8D24E"/>
</svg>
