<svg width="107" height="34" viewBox="0 0 107 34" fill="none" xmlns="http://www.w3.org/2000/svg">
<ellipse rx="2.64285" ry="2.81563" transform="matrix(0.986896 -0.161679 0.142011 0.989912 85.5813 17.9821)" fill="#F8D24E"/>
<ellipse rx="2.64285" ry="2.81563" transform="matrix(0.986896 -0.161679 0.142011 0.989912 90.6995 13.3392)" fill="#F8D24E"/>
<ellipse rx="2.64285" ry="2.81563" transform="matrix(0.986896 -0.161679 0.142011 0.989912 96.6204 8.09052)" fill="#F8D24E"/>
<ellipse rx="2.64285" ry="2.81563" transform="matrix(0.986896 -0.161679 0.142011 0.989912 102.173 3.37726)" fill="#F8D24E"/>
<ellipse cx="2.71977" cy="17.5514" rx="2.71977" ry="2.81979" fill="#F8D24E"/>
<ellipse cx="8.61137" cy="13.7916" rx="2.71977" ry="2.81979" fill="#F8D24E"/>
<ellipse cx="15.4131" cy="9.56197" rx="2.71977" ry="2.81979" fill="#F8D24E"/>
<ellipse cx="21.7579" cy="5.80172" rx="2.71977" ry="2.81979" fill="#F8D24E"/>
<ellipse cx="5.44047" cy="24.6005" rx="2.71977" ry="2.81979" fill="#F8D24E"/>
<ellipse cx="11.3331" cy="20.8408" rx="2.71977" ry="2.81979" fill="#F8D24E"/>
<ellipse cx="18.1338" cy="16.611" rx="2.71977" ry="2.81979" fill="#F8D24E"/>
<ellipse cx="24.4786" cy="12.8513" rx="2.71977" ry="2.81979" fill="#F8D24E"/>
<ellipse cx="12.2383" cy="28.3598" rx="2.71977" ry="2.81979" fill="#F8D24E"/>
<ellipse cx="18.1319" cy="24.6004" rx="2.71977" ry="2.81979" fill="#F8D24E"/>
<ellipse cx="24.9307" cy="20.3707" rx="2.71977" ry="2.81979" fill="#F8D24E"/>
<ellipse cx="31.2764" cy="16.611" rx="2.71977" ry="2.81979" fill="#F8D24E"/>
<ellipse cx="19.9434" cy="30.7105" rx="2.71977" ry="2.81979" fill="#F8D24E"/>
<ellipse cx="25.836" cy="26.95" rx="2.71977" ry="2.81979" fill="#F8D24E"/>
<ellipse cx="32.6377" cy="22.7208" rx="2.71977" ry="2.81979" fill="#F8D24E"/>
<ellipse cx="38.9815" cy="18.961" rx="2.71977" ry="2.81979" fill="#F8D24E"/>
<ellipse cx="29.917" cy="31.1805" rx="2.71977" ry="2.81979" fill="#F8D24E"/>
<ellipse cx="35.8096" cy="27.4207" rx="2.71977" ry="2.81979" fill="#F8D24E"/>
<ellipse cx="42.6104" cy="23.1908" rx="2.71977" ry="2.81979" fill="#F8D24E"/>
<ellipse cx="48.9551" cy="19.4315" rx="2.71977" ry="2.81979" fill="#F8D24E"/>
<ellipse cx="41.7041" cy="31.1803" rx="2.71977" ry="2.81979" fill="#F8D24E"/>
<ellipse cx="47.5957" cy="27.4205" rx="2.71977" ry="2.81979" fill="#F8D24E"/>
<ellipse cx="54.3956" cy="23.1905" rx="2.71977" ry="2.81979" fill="#F8D24E"/>
<ellipse cx="60.7422" cy="19.4312" rx="2.71977" ry="2.81979" fill="#F8D24E"/>
<ellipse cx="51.6739" cy="30.7103" rx="2.71977" ry="2.81979" fill="#F8D24E"/>
<ellipse cx="57.5665" cy="26.95" rx="2.71977" ry="2.81979" fill="#F8D24E"/>
<ellipse cx="64.3672" cy="22.7208" rx="2.71977" ry="2.81979" fill="#F8D24E"/>
<ellipse cx="70.712" cy="18.961" rx="2.71977" ry="2.81979" fill="#F8D24E"/>
<ellipse cx="63.0059" cy="30.24" rx="2.71977" ry="2.81979" fill="#F8D24E"/>
<ellipse cx="68.8985" cy="26.4804" rx="2.71977" ry="2.81979" fill="#F8D24E"/>
<ellipse cx="75.6993" cy="22.2509" rx="2.71977" ry="2.81979" fill="#F8D24E"/>
<ellipse cx="82.044" cy="18.4909" rx="2.71977" ry="2.81979" fill="#F8D24E"/>
<ellipse cx="73.4317" cy="18.0211" rx="2.71977" ry="2.81979" fill="#F8D24E"/>
<ellipse cx="79.3243" cy="14.2614" rx="2.71977" ry="2.81979" fill="#F8D24E"/>
<ellipse cx="86.1241" cy="10.0317" rx="2.71977" ry="2.81979" fill="#F8D24E"/>
<ellipse cx="92.4698" cy="6.27169" rx="2.71977" ry="2.81979" fill="#F8D24E"/>
</svg>
